<svg aria-hidden="true" style="position: absolute; width: 0; height: 0; overflow: hidden;" version="1.1" xmlns="http://www.w3.org/2000/svg" xmlns:xlink="http://www.w3.org/1999/xlink">
<defs>
<symbol id="icon-computer-desktop" viewBox="0 0 20 20">
<title>computer-desktop</title>
<path d="M7 17h-5c-1.105 0-2-0.895-2-2v0-13c0-1.1 0.9-2 2-2h16c1.105 0 2 0.895 2 2v0 13c0 1.105-0.895 2-2 2v0h-5l4 2v1h-14v-1l4-2zM2 2v11h16v-11h-16z"></path>
</symbol>
<symbol id="icon-arrow-long-down" viewBox="0 0 20 20">
<title>arrow-long-down</title>
<path d="M10 19.25l-5.5-5.25h3.5v-13h4v13h3.5l-5.5 5.25z"></path>
</symbol>
<symbol id="icon-arrow-long-left" viewBox="0 0 20 20">
<title>arrow-long-left</title>
<path d="M0.75 10l5.25-5.5v3.5h13v4h-13v3.5l-5.25-5.5z"></path>
</symbol>
<symbol id="icon-arrow-long-right" viewBox="0 0 20 20">
<title>arrow-long-right</title>
<path d="M14 15.5v-3.5h-13v-4h13v-3.5l5.25 5.5-5.25 5.5z"></path>
</symbol>
<symbol id="icon-arrow-long-up" viewBox="0 0 20 20">
<title>arrow-long-up</title>
<path d="M10 0.75l5.5 5.25h-3.5v13h-4v-13h-3.5l5.5-5.25z"></path>
</symbol>
<symbol id="icon-mail" viewBox="0 0 20 20">
<title>mail</title>
<path d="M1.574 5.286c0.488 0.262 7.248 3.894 7.5 4.029s0.578 0.199 0.906 0.199c0.328 0 0.654-0.064 0.906-0.199s7.012-3.767 7.5-4.029c0.489-0.263 0.951-1.286 0.054-1.286h-16.919c-0.897 0-0.435 1.023 0.053 1.286zM18.613 7.489c-0.555 0.289-7.387 3.849-7.727 4.027s-0.578 0.199-0.906 0.199-0.566-0.021-0.906-0.199-7.133-3.739-7.688-4.028c-0.39-0.204-0.386 0.035-0.386 0.219s0 7.293 0 7.293c0 0.42 0.566 1 1 1h16c0.434 0 1-0.58 1-1 0 0 0-7.108 0-7.292s0.004-0.423-0.387-0.219z"></path>
</symbol>
<symbol id="icon-paper-plane" viewBox="0 0 20 20">
<title>paper-plane</title>
<path d="M18.64 2.634c-0.344 0.121-17.321 6.104-17.656 6.222-0.284 0.1-0.347 0.345-0.010 0.479 0.401 0.161 3.796 1.521 3.796 1.521v0l2.25 0.901c0 0 10.838-7.958 10.984-8.066 0.148-0.108 0.318 0.095 0.211 0.211s-7.871 8.513-7.871 8.513v0.002l-0.452 0.503 0.599 0.322c0 0 4.65 2.504 4.982 2.682 0.291 0.156 0.668 0.027 0.752-0.334 0.099-0.426 2.845-12.261 2.906-12.525 0.079-0.343-0.148-0.552-0.491-0.431zM7 17.162c0 0.246 0.139 0.315 0.331 0.141 0.251-0.229 2.85-2.561 2.85-2.561l-3.181-1.644v4.064z"></path>
</symbol>
<symbol id="icon-plus" viewBox="0 0 20 20">
<title>plus</title>
<path d="M16 10c0 0.553-0.048 1-0.601 1h-4.399v4.399c0 0.552-0.447 0.601-1 0.601s-1-0.049-1-0.601v-4.399h-4.399c-0.552 0-0.601-0.447-0.601-1s0.049-1 0.601-1h4.399v-4.399c0-0.553 0.447-0.601 1-0.601s1 0.048 1 0.601v4.399h4.399c0.553 0 0.601 0.447 0.601 1z"></path>
</symbol>
<symbol id="icon-visualstudio" viewBox="0 0 32 32">
<title>visualstudio</title>
<path fill="#5c2d91" style="fill: var(--color1, #5c2d91)" d="M23.44 0.093c-0.008-0-0.018-0-0.028-0-0.52 0-0.994 0.199-1.35 0.524l0.002-0.001c-0 0-0 0-0.001 0s-0 0-0.001 0h0c-0.024 0.020-0.046 0.040-0.067 0.060l0-0-10.623 11.747-6.2-5.084-0.543-0.467c-0.229-0.191-0.527-0.308-0.852-0.308-0.185 0-0.361 0.038-0.521 0.106l0.009-0.003c-0.014 0.005-0.019 0.008-0.025 0.010l0.009-0.003-2.421 1c-0.043 0.018-0.077 0.033-0.11 0.050l0.007-0.003c-0.027 0.015-0.048 0.028-0.068 0.041l0.005-0.003c-0.024 0.013-0.040 0.023-0.056 0.033l0.006-0.003c-0.026 0.017-0.047 0.032-0.067 0.048l0.003-0.002c-0.017 0.013-0.031 0.023-0.044 0.034l0.002-0.002c-0.022 0.017-0.040 0.033-0.059 0.049l0.001-0.001c-0.018 0.015-0.033 0.030-0.048 0.044l0-0c-0.014 0.014-0.028 0.030-0.041 0.045l-0.001 0.002c-0.014 0.015-0.028 0.032-0.042 0.048l-0.002 0.002c-0.014 0.017-0.029 0.036-0.044 0.055l-0.002 0.003c-0.008 0.011-0.019 0.026-0.029 0.041l-0.003 0.005c-0.012 0.017-0.026 0.039-0.039 0.062l-0.003 0.006c-0.006 0.009-0.015 0.024-0.023 0.039l-0.003 0.007c-0.008 0.014-0.018 0.036-0.029 0.058l-0.003 0.008c-0.006 0.012-0.015 0.031-0.023 0.051l-0.003 0.009c-0.005 0.010-0.012 0.030-0.019 0.049l-0.003 0.009c-0.005 0.011-0.012 0.032-0.019 0.053l-0.003 0.009c-0.005 0.015-0.012 0.039-0.018 0.064l-0.002 0.009c-0.003 0.008-0.007 0.026-0.012 0.044l-0.002 0.009c-0.003 0.016-0.007 0.041-0.010 0.066l-0.001 0.007c-0.002 0.015-0.005 0.038-0.008 0.061l-0 0.005c-0.003 0.033-0.005 0.071-0.005 0.11v14.212c0.003 0.548 0.337 1.017 0.811 1.219l0.009 0.003 2.421 1.017c0.151 0.065 0.328 0.102 0.512 0.102 0.332 0 0.635-0.121 0.868-0.321l-0.002 0.002 0.544-0.467 6.2-5.084 10.624 11.747c0.030 0.029 0.061 0.057 0.093 0.084l0.003 0.002c0.023 0.021 0.048 0.043 0.073 0.064l0.003 0.003c0.020 0.015 0.045 0.034 0.071 0.052l0.007 0.004c0.021 0.016 0.049 0.035 0.077 0.054l0.007 0.005c0.020 0.013 0.048 0.029 0.077 0.045l0.010 0.005c0.019 0.012 0.047 0.027 0.076 0.043l0.011 0.005c0.018 0.009 0.048 0.023 0.078 0.036l0.013 0.005c0.018 0.009 0.049 0.023 0.080 0.035l0.013 0.005c0.018 0.008 0.050 0.019 0.083 0.029l0.014 0.004c0.015 0.006 0.044 0.015 0.074 0.023l0.014 0.003c0.021 0.007 0.057 0.016 0.093 0.024l0.013 0.003c0.017 0.004 0.047 0.011 0.078 0.017l0.012 0.002c0.022 0.004 0.057 0.009 0.091 0.013l0.009 0.001c0.025 0.003 0.059 0.007 0.094 0.009l0.006 0c0.028 0.002 0.061 0.003 0.096 0.004l0.002 0c0.015 0 0.033 0.001 0.051 0.001s0.036-0 0.054-0.001l-0.003 0c0.040-0.002 0.076-0.004 0.112-0.007l-0.008 0.001c0.038-0.003 0.069-0.006 0.099-0.010l-0.010 0.001c0.050-0.006 0.090-0.013 0.129-0.021l-0.013 0.002c0.040-0.007 0.067-0.012 0.093-0.019l-0.013 0.003c0.050-0.012 0.086-0.022 0.121-0.033l-0.014 0.004c0.045-0.012 0.075-0.021 0.105-0.031l-0.014 0.004c0.045-0.016 0.076-0.029 0.106-0.042l-0.013 0.005c0.053-0.020 0.093-0.037 0.131-0.054l-0.012 0.005 6.589-3.168c0.249-0.122 0.459-0.284 0.631-0.48l0.002-0.002c0.040-0.045 0.079-0.093 0.116-0.144l0.004-0.006c-0.003 0.006-0.002 0.003 0 0l0.005-0.010c0.034-0.047 0.069-0.101 0.102-0.157l0.005-0.010c0.025-0.042 0.052-0.094 0.078-0.148l0.005-0.012c-0.001 0.003 0.003-0.004 0.007-0.012l0.005-0.011c0.015-0.033 0.034-0.081 0.050-0.129l0.004-0.014c0.002-0.003 0.008-0.019 0.014-0.035l0.005-0.014c0.011-0.033 0.025-0.081 0.037-0.129l0.003-0.014c0.001-0.003 0.005-0.019 0.009-0.036l0.003-0.014c0.007-0.032 0.015-0.077 0.021-0.123l0.001-0.011c0.002-0.010 0.006-0.033 0.009-0.056l0.001-0.011c0.003-0.033 0.006-0.075 0.008-0.118l0-0.004c0.002-0.029 0.004-0.066 0.005-0.103l0-0.003v-21.481c0-0 0-0.001 0-0.001s0-0.001 0-0.001v0c0-0.006 0-0.014 0-0.021s-0-0.015-0-0.022v0.001c-0.001-0.072-0.006-0.141-0.014-0.21l0.001 0.010c-0.087-0.691-0.515-1.265-1.108-1.555l-0.012-0.005-6.587-3.167c-0.243-0.119-0.528-0.191-0.829-0.196l-0.002-0zM23.996 9.229v13.543l-8.26-6.771zM4.007 11.435l4.129 4.567-4.129 4.565z"></path>
</symbol>
<symbol id="icon-computer" viewBox="0 0 24 24">
<title>computer</title>
<path d="M3.984 6v9.984h16.031v-9.984h-16.031zM20.016 18h3.984v2.016h-24v-2.016h3.984q-0.797 0-1.383-0.609t-0.586-1.406v-9.984q0-0.797 0.586-1.406t1.383-0.609h16.031q0.797 0 1.383 0.609t0.586 1.406v9.984q0 0.797-0.586 1.406t-1.383 0.609z"></path>
</symbol>
<symbol id="icon-done_all" viewBox="0 0 24 24">
<title>done_all</title>
<path d="M0.422 13.406l1.406-1.406 5.578 5.578-1.406 1.406zM22.219 5.578l1.453 1.406-12 12-5.625-5.578 1.453-1.406 4.172 4.172zM18 6.984l-6.328 6.375-1.406-1.406 6.328-6.375z"></path>
</symbol>
<symbol id="icon-images" viewBox="0 0 36 32">
<title>images</title>
<path d="M34 4h-2v-2c0-1.1-0.9-2-2-2h-28c-1.1 0-2 0.9-2 2v24c0 1.1 0.9 2 2 2h2v2c0 1.1 0.9 2 2 2h28c1.1 0 2-0.9 2-2v-24c0-1.1-0.9-2-2-2zM4 6v20h-1.996c-0.001-0.001-0.003-0.002-0.004-0.004v-23.993c0.001-0.001 0.002-0.003 0.004-0.004h27.993c0.001 0.001 0.003 0.002 0.004 0.004v1.996h-24c-1.1 0-2 0.9-2 2v0zM34 29.996c-0.001 0.001-0.002 0.003-0.004 0.004h-27.993c-0.001-0.001-0.003-0.002-0.004-0.004v-23.993c0.001-0.001 0.002-0.003 0.004-0.004h27.993c0.001 0.001 0.003 0.002 0.004 0.004v23.993z"></path>
<path d="M30 11c0 1.657-1.343 3-3 3s-3-1.343-3-3 1.343-3 3-3 3 1.343 3 3z"></path>
<path d="M32 28h-24v-4l7-12 8 10h2l7-6z"></path>
</symbol>
<symbol id="icon-phone" viewBox="0 0 32 32">
<title>phone</title>
<path d="M22 20c-2 2-2 4-4 4s-4-2-6-4-4-4-4-6 2-2 4-4-4-8-6-8-6 6-6 6c0 4 4.109 12.109 8 16s12 8 16 8c0 0 6-4 6-6s-6-8-8-6z"></path>
</symbol>
<symbol id="icon-location" viewBox="0 0 32 32">
<title>location</title>
<path d="M16 0c-5.523 0-10 4.477-10 10 0 10 10 22 10 22s10-12 10-22c0-5.523-4.477-10-10-10zM16 16c-3.314 0-6-2.686-6-6s2.686-6 6-6 6 2.686 6 6-2.686 6-6 6z"></path>
</symbol>
<symbol id="icon-bubbles" viewBox="0 0 36 32">
<title>bubbles</title>
<path d="M34 28.161c0 1.422 0.813 2.653 2 3.256v0.498c-0.332 0.045-0.671 0.070-1.016 0.070-2.125 0-4.042-0.892-5.398-2.321-0.819 0.218-1.688 0.336-2.587 0.336-4.971 0-9-3.582-9-8s4.029-8 9-8c4.971 0 9 3.582 9 8 0 1.73-0.618 3.331-1.667 4.64-0.213 0.463-0.333 0.979-0.333 1.522zM16 0c8.702 0 15.781 5.644 15.995 12.672-1.537-0.685-3.237-1.047-4.995-1.047-2.986 0-5.807 1.045-7.942 2.943-2.214 1.968-3.433 4.607-3.433 7.432 0 1.396 0.298 2.747 0.867 3.993-0.163 0.004-0.327 0.007-0.492 0.007-0.849 0-1.682-0.054-2.495-0.158-3.437 3.437-7.539 4.053-11.505 4.144v-0.841c2.142-1.049 4-2.961 4-5.145 0-0.305-0.024-0.604-0.068-0.897-3.619-2.383-5.932-6.024-5.932-10.103 0-7.18 7.163-13 16-13z"></path>
</symbol>
<symbol id="icon-users" viewBox="0 0 36 32">
<title>users</title>
<path d="M24 24.082v-1.649c2.203-1.241 4-4.337 4-7.432 0-4.971 0-9-6-9s-6 4.029-6 9c0 3.096 1.797 6.191 4 7.432v1.649c-6.784 0.555-12 3.888-12 7.918h28c0-4.030-5.216-7.364-12-7.918z"></path>
<path d="M10.225 24.854c1.728-1.13 3.877-1.989 6.243-2.513-0.47-0.556-0.897-1.176-1.265-1.844-0.95-1.726-1.453-3.627-1.453-5.497 0-2.689 0-5.228 0.956-7.305 0.928-2.016 2.598-3.265 4.976-3.734-0.529-2.39-1.936-3.961-5.682-3.961-6 0-6 4.029-6 9 0 3.096 1.797 6.191 4 7.432v1.649c-6.784 0.555-12 3.888-12 7.918h8.719c0.454-0.403 0.956-0.787 1.506-1.146z"></path>
</symbol>
<symbol id="icon-sphere" viewBox="0 0 32 32">
<title>sphere</title>
<path d="M15 2c-8.284 0-15 6.716-15 15s6.716 15 15 15c8.284 0 15-6.716 15-15s-6.716-15-15-15zM23.487 22c0.268-1.264 0.437-2.606 0.492-4h3.983c-0.104 1.381-0.426 2.722-0.959 4h-3.516zM6.513 12c-0.268 1.264-0.437 2.606-0.492 4h-3.983c0.104-1.381 0.426-2.722 0.959-4h3.516zM21.439 12c0.3 1.28 0.481 2.62 0.54 4h-5.979v-4h5.439zM16 10v-5.854c0.456 0.133 0.908 0.355 1.351 0.668 0.831 0.586 1.625 1.488 2.298 2.609 0.465 0.775 0.867 1.638 1.203 2.578h-4.852zM10.351 7.422c0.673-1.121 1.467-2.023 2.298-2.609 0.443-0.313 0.895-0.535 1.351-0.668v5.854h-4.852c0.336-0.94 0.738-1.803 1.203-2.578zM14 12v4h-5.979c0.059-1.38 0.24-2.72 0.54-4h5.439zM2.997 22c-0.533-1.278-0.854-2.619-0.959-4h3.983c0.055 1.394 0.224 2.736 0.492 4h-3.516zM8.021 18h5.979v4h-5.439c-0.3-1.28-0.481-2.62-0.54-4zM14 24v5.854c-0.456-0.133-0.908-0.355-1.351-0.668-0.831-0.586-1.625-1.488-2.298-2.609-0.465-0.775-0.867-1.638-1.203-2.578h4.852zM19.649 26.578c-0.673 1.121-1.467 2.023-2.298 2.609-0.443 0.312-0.895 0.535-1.351 0.668v-5.854h4.852c-0.336 0.94-0.738 1.802-1.203 2.578zM16 22v-4h5.979c-0.059 1.38-0.24 2.72-0.54 4h-5.439zM23.98 16c-0.055-1.394-0.224-2.736-0.492-4h3.516c0.533 1.278 0.855 2.619 0.959 4h-3.983zM25.958 10h-2.997c-0.582-1.836-1.387-3.447-2.354-4.732 1.329 0.636 2.533 1.488 3.585 2.54 0.671 0.671 1.261 1.404 1.766 2.192zM5.808 7.808c1.052-1.052 2.256-1.904 3.585-2.54-0.967 1.285-1.771 2.896-2.354 4.732h-2.997c0.504-0.788 1.094-1.521 1.766-2.192zM4.042 24h2.997c0.583 1.836 1.387 3.447 2.354 4.732-1.329-0.636-2.533-1.488-3.585-2.54-0.671-0.671-1.261-1.404-1.766-2.192zM24.192 26.192c-1.052 1.052-2.256 1.904-3.585 2.54 0.967-1.285 1.771-2.896 2.354-4.732h2.997c-0.504 0.788-1.094 1.521-1.766 2.192z"></path>
</symbol>
<symbol id="icon-heart" viewBox="0 0 32 32">
<title>heart</title>
<path d="M23.6 2c-3.363 0-6.258 2.736-7.599 5.594-1.342-2.858-4.237-5.594-7.601-5.594-4.637 0-8.4 3.764-8.4 8.401 0 9.433 9.516 11.906 16.001 21.232 6.13-9.268 15.999-12.1 15.999-21.232 0-4.637-3.763-8.401-8.4-8.401z"></path>
</symbol>
<symbol id="icon-github" viewBox="0 0 32 32">
<title>github</title>
<path d="M16 0.395c-8.836 0-16 7.163-16 16 0 7.069 4.585 13.067 10.942 15.182 0.8 0.148 1.094-0.347 1.094-0.77 0-0.381-0.015-1.642-0.022-2.979-4.452 0.968-5.391-1.888-5.391-1.888-0.728-1.849-1.776-2.341-1.776-2.341-1.452-0.993 0.11-0.973 0.11-0.973 1.606 0.113 2.452 1.649 2.452 1.649 1.427 2.446 3.743 1.739 4.656 1.33 0.143-1.034 0.558-1.74 1.016-2.14-3.554-0.404-7.29-1.777-7.29-7.907 0-1.747 0.625-3.174 1.649-4.295-0.166-0.403-0.714-2.030 0.155-4.234 0 0 1.344-0.43 4.401 1.64 1.276-0.355 2.645-0.532 4.005-0.539 1.359 0.006 2.729 0.184 4.008 0.539 3.054-2.070 4.395-1.64 4.395-1.64 0.871 2.204 0.323 3.831 0.157 4.234 1.026 1.12 1.647 2.548 1.647 4.295 0 6.145-3.743 7.498-7.306 7.895 0.574 0.497 1.085 1.47 1.085 2.963 0 2.141-0.019 3.864-0.019 4.391 0 0.426 0.288 0.925 1.099 0.768 6.354-2.118 10.933-8.113 10.933-15.18 0-8.837-7.164-16-16-16z"></path>
</symbol>
<symbol id="icon-skype" viewBox="0 0 32 32">
<title>skype</title>
<path d="M13.3 1.169c-0.050-0.031-0.106-0.056-0.156-0.081-0.056 0.012-0.106 0.019-0.162 0.031l0.319 0.050z"></path>
<path d="M1.15 13.156c-0.012 0.056-0.019 0.113-0.025 0.162 0.031 0.050 0.050 0.1 0.081 0.15l-0.056-0.313z"></path>
<path d="M30.837 18.831c0.012-0.056 0.019-0.113 0.031-0.169-0.031-0.050-0.050-0.1-0.081-0.15l0.050 0.319z"></path>
<path d="M18.5 30.719c0.050 0.031 0.106 0.056 0.156 0.081 0.056-0.012 0.113-0.019 0.169-0.025l-0.325-0.056z"></path>
<path d="M30.869 18.663c-0.012 0.056-0.019 0.113-0.031 0.169l-0.056-0.325c0.031 0.056 0.056 0.106 0.087 0.156 0.163-0.9 0.25-1.819 0.25-2.738 0-2.037-0.4-4.019-1.188-5.881-0.762-1.8-1.85-3.419-3.238-4.806s-3.006-2.475-4.8-3.237c-1.863-0.788-3.844-1.188-5.881-1.188-0.963 0-1.925 0.088-2.863 0.269 0 0-0.006 0-0.006 0 0.050 0.025 0.106 0.050 0.156 0.081l-0.319-0.050c0.056-0.012 0.106-0.019 0.162-0.031-1.287-0.681-2.731-1.050-4.194-1.050-2.388 0-4.638 0.931-6.325 2.619s-2.619 3.937-2.619 6.325c0 1.519 0.394 3.019 1.125 4.338 0.012-0.056 0.019-0.113 0.025-0.162l0.056 0.319c-0.031-0.050-0.056-0.1-0.081-0.15-0.15 0.856-0.225 1.731-0.225 2.606 0 2.038 0.4 4.019 1.188 5.881 0.763 1.8 1.85 3.413 3.237 4.8s3.006 2.475 4.806 3.238c1.863 0.788 3.844 1.188 5.881 1.188 0.887 0 1.775-0.081 2.644-0.238-0.050-0.031-0.1-0.056-0.156-0.081l0.325 0.056c-0.056 0.012-0.113 0.019-0.169 0.025 1.337 0.756 2.856 1.163 4.4 1.163 2.387 0 4.637-0.931 6.325-2.619s2.619-3.938 2.619-6.325c-0.006-1.519-0.4-3.019-1.137-4.35zM16.069 25.181c-5.369 0-7.769-2.637-7.769-4.619 0-1.012 0.75-1.725 1.781-1.725 2.3 0 1.7 3.3 5.988 3.3 2.194 0 3.406-1.194 3.406-2.413 0-0.731-0.363-1.544-1.806-1.9l-4.775-1.194c-3.844-0.963-4.544-3.044-4.544-5 0-4.056 3.819-5.581 7.406-5.581 3.306 0 7.2 1.825 7.2 4.263 0 1.044-0.906 1.65-1.938 1.65-1.962 0-1.6-2.713-5.55-2.713-1.963 0-3.044 0.887-3.044 2.156s1.55 1.675 2.894 1.981l3.538 0.787c3.869 0.863 4.85 3.125 4.85 5.25 0 3.294-2.531 5.756-7.637 5.756z"></path>
</symbol>
<symbol id="icon-linkedin2" viewBox="0 0 32 32">
<title>linkedin2</title>
<path d="M12 12h5.535v2.837h0.079c0.77-1.381 2.655-2.837 5.464-2.837 5.842 0 6.922 3.637 6.922 8.367v9.633h-5.769v-8.54c0-2.037-0.042-4.657-3.001-4.657-3.005 0-3.463 2.218-3.463 4.509v8.688h-5.767v-18z"></path>
<path d="M2 12h6v18h-6v-18z"></path>
<path d="M8 7c0 1.657-1.343 3-3 3s-3-1.343-3-3c0-1.657 1.343-3 3-3s3 1.343 3 3z"></path>
</symbol>
</defs>
</svg>
