<?xml version="1.0" encoding="UTF-8" standalone="no"?>
<!-- Generated by IcoMoon.io -->

<svg
   xmlns:dc="http://purl.org/dc/elements/1.1/"
   xmlns:cc="http://creativecommons.org/ns#"
   xmlns:rdf="http://www.w3.org/1999/02/22-rdf-syntax-ns#"
   xmlns:svg="http://www.w3.org/2000/svg"
   xmlns="http://www.w3.org/2000/svg"
   xmlns:sodipodi="http://sodipodi.sourceforge.net/DTD/sodipodi-0.dtd"
   xmlns:inkscape="http://www.inkscape.org/namespaces/inkscape"
   version="1.1"
   width="62.622196"
   height="59.742027"
   viewBox="0 0 62.622196 59.742028"
   id="svg6153"
   sodipodi:docname="contactIN.svg"
   inkscape:version="0.92.4 (5da689c313, 2019-01-14)">
  <metadata
     id="metadata6159">
    <rdf:RDF>
      <cc:Work
         rdf:about="">
        <dc:format>image/svg+xml</dc:format>
        <dc:type
           rdf:resource="http://purl.org/dc/dcmitype/StillImage" />
        <dc:title>contact</dc:title>
      </cc:Work>
    </rdf:RDF>
  </metadata>
  <defs
     id="defs6157" />
  <sodipodi:namedview
     pagecolor="#ffffff"
     bordercolor="#666666"
     borderopacity="1"
     objecttolerance="10"
     gridtolerance="10"
     guidetolerance="10"
     inkscape:pageopacity="0"
     inkscape:pageshadow="2"
     inkscape:window-width="1920"
     inkscape:window-height="1017"
     id="namedview6155"
     showgrid="false"
     fit-margin-top="0.3"
     fit-margin-right="0.3"
     fit-margin-left="0.3"
     fit-margin-bottom="0.3"
     inkscape:showpageshadow="false"
     showborder="true"
     inkscape:zoom="9.875"
     inkscape:cx="25.636751"
     inkscape:cy="28.449137"
     inkscape:window-x="1912"
     inkscape:window-y="-8"
     inkscape:window-maximized="1"
     inkscape:current-layer="svg6153" />
  <title
     id="title6149">contact</title>
  <path
     style="fill:#d1a46f;fill-opacity:1;fill-rule:evenodd;stroke:none;stroke-width:0.15580469;stroke-linejoin:round;stroke-miterlimit:4;stroke-dasharray:none;stroke-opacity:1"
     d="M 22.093173,38.367944 17.186058,33.726715 31.020616,20.645883 44.855176,7.5650566 49.76334,12.205812 54.671507,16.846573 40.835898,29.927874 27.000292,43.009176 Z"
     id="path6161"
     inkscape:connector-curvature="0" />
  <path
     style="fill:#d1a46f;fill-opacity:1;fill-rule:evenodd;stroke:none;stroke-width:0.15580469;stroke-linejoin:round;stroke-miterlimit:4;stroke-dasharray:none;stroke-opacity:1"
     d="m 9.3309691,50.507759 c 0.039503,-0.09246 1.3949039,-3.375158 3.0120119,-7.294847 1.617113,-3.919684 2.970524,-7.155374 3.007581,-7.190416 0.03706,-0.03506 2.144563,1.899613 4.683336,4.29922 4.36485,4.125582 4.598656,4.371309 4.29794,4.51704 -0.481155,0.233175 -14.8540949,5.83714 -14.9709985,5.83714 -0.055932,0 -0.069351,-0.07568 -0.029867,-0.168132 z"
     id="path6163"
     inkscape:connector-curvature="0" />
  <path
     style="fill:#d1a46f;fill-opacity:1;fill-rule:evenodd;stroke:none;stroke-width:0.15580469;stroke-linejoin:round;stroke-miterlimit:4;stroke-dasharray:none;stroke-opacity:1"
     d="M 51.856889,10.149461 46.981025,5.5377914 49.368059,3.3143765 c 2.551575,-2.37667735 3.016078,-2.67583345 4.567905,-2.94190222 1.131631,-0.19402278 2.361385,0.004526 3.465659,0.55952687 1.052487,0.52898005 3.90862,3.26998085 4.356338,4.18073865 0.744068,1.5135824 0.752309,3.0457055 0.0242,4.5166716 -0.349045,0.7052606 -0.834446,1.2528486 -2.656908,2.9973116 -1.226411,1.173927 -2.266459,2.134409 -2.311218,2.134409 -0.04476,0 -2.275513,-2.075252 -4.957242,-4.611671 z"
     id="path6165"
     inkscape:connector-curvature="0" />
  <path
     style="fill:#444b55;fill-opacity:1;fill-rule:evenodd;stroke:none;stroke-width:0.15580469;stroke-linejoin:round;stroke-miterlimit:4;stroke-dasharray:none;stroke-opacity:1"
     d="M 2.7857287,59.399989 C 2.6292394,59.368117 2.3583357,59.313302 2.1837202,59.278102 1.7006793,59.180781 0.85161626,58.410736 0.56144436,57.806797 0.31379711,57.291369 0.30227212,56.140776 0.30004385,31.710274 0.29839817,13.548543 0.34294992,5.9972494 0.45404286,5.6148977 0.65247536,4.9319486 1.671113,3.9777682 2.3181129,3.8687818 2.5753012,3.825459 12.144202,3.8071616 23.582337,3.8281243 l 20.796611,0.038123 -2.503624,2.5221035 -2.503628,2.5221061 H 22.60804 5.8443831 V 31.575762 54.241075 H 29.839111 53.833845 l -0.09643,-14.695462 -0.09645,-14.695461 2.777763,-2.622989 2.777756,-2.622985 -0.0373,19.033482 -0.03731,19.033477 -0.332479,0.50561 c -0.182851,0.27809 -0.630988,0.671537 -0.995838,0.874334 l -0.663345,0.368717 -27.029973,0.01922 c -14.86649,0.01029 -27.1580126,-0.0066 -27.314502,-0.03885 z"
     id="path6167"
     inkscape:connector-curvature="0" />
</svg>
