<?xml version="1.0" encoding="UTF-8" standalone="no"?>
<!-- Generated by IcoMoon.io -->

<svg
   xmlns:dc="http://purl.org/dc/elements/1.1/"
   xmlns:cc="http://creativecommons.org/ns#"
   xmlns:rdf="http://www.w3.org/1999/02/22-rdf-syntax-ns#"
   xmlns:svg="http://www.w3.org/2000/svg"
   xmlns="http://www.w3.org/2000/svg"
   xmlns:sodipodi="http://sodipodi.sourceforge.net/DTD/sodipodi-0.dtd"
   xmlns:inkscape="http://www.inkscape.org/namespaces/inkscape"
   version="1.1"
   width="66.831367"
   height="59.835201"
   viewBox="0 0 66.831367 59.835201"
   id="svg7926"
   sodipodi:docname="hobbyIN.svg"
   inkscape:version="0.92.4 (5da689c313, 2019-01-14)">
  <metadata
     id="metadata7932">
    <rdf:RDF>
      <cc:Work
         rdf:about="">
        <dc:format>image/svg+xml</dc:format>
        <dc:type
           rdf:resource="http://purl.org/dc/dcmitype/StillImage" />
        <dc:title>hobby</dc:title>
      </cc:Work>
    </rdf:RDF>
  </metadata>
  <defs
     id="defs7930" />
  <sodipodi:namedview
     pagecolor="#ffffff"
     bordercolor="#666666"
     borderopacity="1"
     objecttolerance="10"
     gridtolerance="10"
     guidetolerance="10"
     inkscape:pageopacity="0"
     inkscape:pageshadow="2"
     inkscape:window-width="1920"
     inkscape:window-height="1017"
     id="namedview7928"
     showgrid="false"
     fit-margin-top="0.3"
     fit-margin-left="0.3"
     fit-margin-bottom="0.3"
     fit-margin-right="0.3"
     inkscape:showpageshadow="false"
     inkscape:zoom="7.375"
     inkscape:cx="29.554222"
     inkscape:cy="24.339911"
     inkscape:window-x="1912"
     inkscape:window-y="-8"
     inkscape:window-maximized="1"
     inkscape:current-layer="svg7926" />
  <title
     id="title7922">hobby</title>
  <path
     style="fill:#d1a46f;fill-opacity:0.99607843;fill-rule:evenodd;stroke:none;stroke-width:0.30898598;stroke-linejoin:round;stroke-miterlimit:4;stroke-dasharray:none;stroke-opacity:1"
     d="m 9.4147816,41.742078 c 0,-0.157098 3.3896134,-6.601553 3.5669144,-6.781548 0.06397,-0.06493 0.846863,0.565126 1.739734,1.400184 0.892873,0.835056 1.707273,1.518288 1.809775,1.518288 0.102485,0 0.911953,-1.110148 1.798776,-2.466993 0.886821,-1.356847 1.922603,-2.932936 2.301735,-3.502421 l 0.689331,-1.035427 2.380164,2.235584 c 1.492082,1.40145 2.455901,2.123976 2.583157,1.936448 2.897936,-4.270544 6.134431,-8.603585 6.305521,-8.441883 0.248453,0.234815 6.45499,14.712764 6.45499,15.057516 0,0.119744 -6.666775,0.217704 -14.815051,0.217704 -8.148276,0 -14.8150464,-0.06186 -14.8150464,-0.137454 z"
     id="path7936"
     inkscape:connector-curvature="0" />
  <path
     style="fill:#d1a46f;fill-opacity:0.99607843;fill-rule:evenodd;stroke:none;stroke-width:0.30898598;stroke-linejoin:round;stroke-miterlimit:4;stroke-dasharray:none;stroke-opacity:1"
     d="m 12.228936,29.690155 c -1.110603,-0.723438 -1.384647,-1.201674 -1.394224,-2.433071 -0.02411,-3.098563 4.350793,-3.776103 5.624015,-0.870992 1.007809,2.299518 -2.075037,4.707652 -4.229791,3.304063 z"
     id="path7938"
     inkscape:connector-curvature="0" />
  <path
     style="fill:#444655;fill-opacity:1;fill-rule:evenodd;stroke:none;stroke-width:0.30898598;stroke-linejoin:round;stroke-miterlimit:4;stroke-dasharray:none;stroke-opacity:1"
     d="M 0.3,36.998885 V 14.462568 H 24.145169 47.990344 V 36.998885 59.5352 H 24.145169 0.3 Z m 43.739664,-4.933988 v -13.8685 H 24.145169 4.2506791 v 13.8685 13.868504 H 24.145169 44.039664 Z"
     id="path9036"
     inkscape:connector-curvature="0" />
  <path
     style="fill:#444655;fill-opacity:1;fill-rule:evenodd;stroke:none;stroke-width:0.30898598;stroke-linejoin:round;stroke-miterlimit:4;stroke-dasharray:none;stroke-opacity:1"
     d="m 51.785049,54.603084 -2.610272,-0.663048 v -7.009943 -7.00994 l 2.045888,0.556652 c 1.12524,0.306158 2.29749,0.566946 2.605007,0.579526 0.502541,0.02055 0.937767,-1.311966 4.300872,-13.167945 C 60.1845,20.633432 61.774196,14.615832 61.659195,14.515939 61.294417,14.19908 24.067641,4.8810709 23.703018,5.015357 23.511202,5.086001 22.98577,6.5083767 22.535385,8.1761938 22.085002,9.8440108 21.540391,11.778664 21.32514,12.475423 l -0.391368,1.266833 h -1.997317 c -1.765057,0 -1.981763,-0.05428 -1.863522,-0.466727 0.07358,-0.256701 0.936699,-3.3050397 1.918016,-6.7740851 1.0698,-3.7818295 1.905091,-6.26446039 2.086095,-6.20022636 0.166035,0.0589272 10.433818,2.67173046 22.817296,5.80624336 12.383477,3.1345129 22.569769,5.7504861 22.636204,5.8132751 0.08951,0.08461 -7.167869,26.019136 -11.898426,42.519429 l -0.2368,0.825965 z"
     id="path9038"
     inkscape:connector-curvature="0" />
</svg>
