<?xml version="1.0" encoding="UTF-8" standalone="no"?>
<!-- Created with Inkscape (http://www.inkscape.org/) -->

<svg
   xmlns:dc="http://purl.org/dc/elements/1.1/"
   xmlns:cc="http://creativecommons.org/ns#"
   xmlns:rdf="http://www.w3.org/1999/02/22-rdf-syntax-ns#"
   xmlns:svg="http://www.w3.org/2000/svg"
   xmlns="http://www.w3.org/2000/svg"
   xmlns:sodipodi="http://sodipodi.sourceforge.net/DTD/sodipodi-0.dtd"
   xmlns:inkscape="http://www.inkscape.org/namespaces/inkscape"
   width="101.33453"
   height="59.672268"
   viewBox="0 0 26.811428 15.788289"
   version="1.1"
   id="svg8"
   sodipodi:docname="aboutIN.svg"
   inkscape:version="0.92.4 (5da689c313, 2019-01-14)">
  <defs
     id="defs2" />
  <sodipodi:namedview
     id="base"
     pagecolor="#ffffff"
     bordercolor="#666666"
     borderopacity="1.0"
     inkscape:pageopacity="0.0"
     inkscape:pageshadow="2"
     inkscape:zoom="3.959798"
     inkscape:cx="47.321685"
     inkscape:cy="22.690508"
     inkscape:document-units="px"
     inkscape:current-layer="layer1"
     showgrid="false"
     inkscape:snap-nodes="false"
     inkscape:snap-bbox="true"
     inkscape:snap-text-baseline="false"
     inkscape:window-width="1920"
     inkscape:window-height="1017"
     inkscape:window-x="1912"
     inkscape:window-y="-8"
     inkscape:window-maximized="1"
     showguides="true"
     inkscape:guide-bbox="true"
     fit-margin-top="0.3"
     fit-margin-left="0.3"
     fit-margin-bottom="0.3"
     fit-margin-right="0.3"
     showborder="true"
     units="px"
     inkscape:showpageshadow="false" />
  <metadata
     id="metadata5">
    <rdf:RDF>
      <cc:Work
         rdf:about="">
        <dc:format>image/svg+xml</dc:format>
        <dc:type
           rdf:resource="http://purl.org/dc/dcmitype/StillImage" />
        <dc:title></dc:title>
        <dc:title />
      </cc:Work>
    </rdf:RDF>
  </metadata>
  <g
     inkscape:label="Layer 1"
     inkscape:groupmode="layer"
     id="layer1"
     transform="translate(253.94798,36.59766)">
    <path
       style="fill:#d1a46f;fill-opacity:1;fill-rule:evenodd;stroke:none;stroke-width:0.06301132;stroke-linejoin:round;stroke-miterlimit:4;stroke-dasharray:none;stroke-opacity:1"
       d="m -253.66047,-31.605751 c 0.1235,-0.09579 2.49369,-1.700101 4.66144,-3.155169 2.24975,-1.510105 2.6906,-1.731131 3.47362,-1.741655 0.57254,-0.0078 0.77984,0.130622 1.17496,0.784043 0.40821,0.67503 0.63415,1.280084 0.61321,1.642025 -0.0141,0.241103 -0.0364,0.287617 -0.17422,0.360953 -0.17624,0.0938 -0.35585,0.05342 -1.13566,-0.25538 -0.5772,-0.228548 -1.00108,-0.224393 -1.45865,0.01429 -0.49303,0.257202 -1.25484,0.911858 -2.01789,1.734078 l -0.64766,0.697894 h -2.29684 c -1.96245,0 -2.28162,-0.01192 -2.19231,-0.08109 z"
       id="path6095"
       inkscape:connector-curvature="0" />
    <path
       style="fill:#444655;fill-opacity:1;fill-rule:evenodd;stroke:none;stroke-width:0.06301132;stroke-linejoin:round;stroke-miterlimit:4;stroke-dasharray:none;stroke-opacity:1"
       d="m -253.20998,-21.063193 c -0.25869,-0.130991 -0.51516,-0.460996 -0.59812,-0.769631 -0.043,-0.159837 -0.0605,-1.493792 -0.0605,-4.604029 v -4.378988 h 13.32633 13.32635 v 4.378988 c 0,3.110237 -0.0174,4.444192 -0.0605,4.604029 -0.0829,0.308635 -0.33944,0.638653 -0.59813,0.769631 -0.20509,0.103844 -0.47247,0.109265 -5.43746,0.110516 l -4.86581,0.06393 c -0.20066,-0.03506 -0.39695,-0.08475 -0.54847,-0.284157 -0.10572,-0.121831 -0.36342,-0.58035 -0.57232,-1.018935 -0.59316,-1.245397 -0.6743,-1.390777 -0.90665,-1.624792 -0.18956,-0.190925 -0.24223,-0.214977 -0.40584,-0.185382 -0.31752,0.05744 -0.542,0.326966 -1.21498,1.458813 -0.35638,0.599348 -0.66071,1.140037 -0.7908,1.278108 -0.23593,0.245968 -0.37964,0.286347 -0.51751,0.313695 -2.38872,0.06778 -3.16178,-0.0079 -4.83631,-0.0011 -4.77225,0.01859 -5.03446,-0.007 -5.23936,-0.110517 z m 9.07103,-1.931982 c 0.54545,-0.12031 0.66582,-0.689567 0.82039,-1.134794 0.10075,-0.290136 0.11996,-0.485196 0.14115,-1.429053 0.0151,-0.673956 9.8e-4,-1.261302 -0.0366,-1.531868 -0.10562,-0.759259 -0.44574,-1.270736 -1.05751,-1.590499 l -0.48513,-0.155653 h -2.91353 l -3.11961,0.04177 -0.35433,0.06914 c -0.38537,0.211484 -0.63576,0.597217 -0.82993,1.036456 -0.11489,0.259855 -0.11944,0.330608 -0.11944,1.83559 0,1.546753 9.7e-4,1.56882 0.13118,1.860662 0.1492,0.335801 0.48791,0.738235 0.75064,0.891813 0.41263,0.241204 0.58851,0.252759 3.67506,0.241406 l 2.92984,-0.03181 z m 13.75446,0.08733 c 0.55051,-0.129906 0.94418,-0.457018 1.21155,-1.006799 l 0.14451,-0.395015 0.0376,-1.544435 c 0.0365,-1.504429 -0.003,-1.575732 -0.11946,-1.835588 -0.19416,-0.439239 -0.30077,-0.728219 -0.68005,-0.952919 -0.35355,-0.209455 -0.53548,-0.134451 -0.71026,-0.194454 h -2.91354 l -2.55762,0.04177 c -0.34239,0.01491 -0.64763,0.04361 -0.84106,0.113893 -0.6424,0.233381 -0.95182,0.83124 -1.0575,1.5905 -0.0377,0.269984 -0.0518,0.859356 -0.0368,1.531868 0.0206,0.925885 0.041,1.140983 0.13459,1.406443 0.21314,0.605131 0.6695,1.062562 1.22732,1.23023 0.32771,0.09849 5.75084,0.111265 6.16093,0.01452 z"
       id="path6101"
       inkscape:connector-curvature="0"
       sodipodi:nodetypes="ccscccssssccscssccscscccscccccsccscssccscscccscccss" />
    <path
       style="fill:#d1a46f;fill-opacity:1;fill-rule:evenodd;stroke:none;stroke-width:0.06301132;stroke-linejoin:round;stroke-miterlimit:4;stroke-dasharray:none;stroke-opacity:1"
       d="m -227.29409,-31.621157 c -0.12349,-0.09576 -2.49368,-1.700102 -4.66142,-3.155166 -2.24977,-1.510105 -2.69059,-1.731136 -3.47364,-1.741657 -0.57257,-0.0078 -0.77982,0.130622 -1.17498,0.784041 -0.4082,0.675032 -0.63415,1.280086 -0.61318,1.642028 0.0141,0.241102 0.0364,0.287616 0.1742,0.360952 0.17627,0.0938 0.35588,0.05342 1.1357,-0.25538 0.57716,-0.228547 1.00107,-0.224392 1.45861,0.01429 0.49306,0.257201 1.25486,0.911855 2.01792,1.734074 l 0.64765,0.697897 h 2.29685 c 1.96245,0 2.2816,-0.01191 2.19229,-0.08109 z"
       id="path6095-8"
       inkscape:connector-curvature="0" />
  </g>
</svg>
