<?xml version="1.0" encoding="UTF-8" standalone="no"?>
<!-- Created with Inkscape (http://www.inkscape.org/) -->

<svg
   xmlns:dc="http://purl.org/dc/elements/1.1/"
   xmlns:cc="http://creativecommons.org/ns#"
   xmlns:rdf="http://www.w3.org/1999/02/22-rdf-syntax-ns#"
   xmlns:svg="http://www.w3.org/2000/svg"
   xmlns="http://www.w3.org/2000/svg"
   xmlns:sodipodi="http://sodipodi.sourceforge.net/DTD/sodipodi-0.dtd"
   xmlns:inkscape="http://www.inkscape.org/namespaces/inkscape"
   width="380.24405mm"
   height="199.02594mm"
   viewBox="0 0 380.24405 199.02594"
   version="1.1"
   id="svg8"
   inkscape:version="0.92.4 (5da689c313, 2019-01-14)"
   sodipodi:docname="aboutCol.svg">
  <defs
     id="defs2" />
  <sodipodi:namedview
     id="base"
     pagecolor="#ffffff"
     bordercolor="#666666"
     borderopacity="1.0"
     inkscape:pageopacity="0.0"
     inkscape:pageshadow="2"
     inkscape:zoom="0.35"
     inkscape:cx="1163.8432"
     inkscape:cy="601.41782"
     inkscape:document-units="mm"
     inkscape:current-layer="layer1"
     showgrid="false"
     inkscape:snap-nodes="false"
     inkscape:snap-bbox="true"
     inkscape:snap-text-baseline="false"
     inkscape:window-width="1920"
     inkscape:window-height="1017"
     inkscape:window-x="1912"
     inkscape:window-y="-8"
     inkscape:window-maximized="1"
     fit-margin-top="0"
     fit-margin-left="0"
     fit-margin-right="0"
     fit-margin-bottom="0" />
  <metadata
     id="metadata5">
    <rdf:RDF>
      <cc:Work
         rdf:about="">
        <dc:format>image/svg+xml</dc:format>
        <dc:type
           rdf:resource="http://purl.org/dc/dcmitype/StillImage" />
        <dc:title></dc:title>
      </cc:Work>
    </rdf:RDF>
  </metadata>
  <g
     inkscape:label="Layer 1"
     inkscape:groupmode="layer"
     id="layer1"
     transform="translate(446.76786,41.423568)">
    <path
       style="fill:#d1a46f;fill-opacity:1;fill-rule:evenodd;stroke:none;stroke-width:0.85142857;stroke-linejoin:round;stroke-miterlimit:4;stroke-dasharray:none;stroke-opacity:1"
       d="m -443.79887,21.249148 c 1.76128,-1.22578 35.57633,-21.75766676 66.50302,-40.379426 32.0965,-19.326136 38.38559,-22.154821 49.55683,-22.28948 8.16851,-0.09847 11.1256,1.671608 16.76289,10.034045 5.82372,8.638983 9.04727,16.382381 8.74823,21.014452 -0.1992,3.0856074 -0.51945,3.6808849 -2.48531,4.6194247 -2.51441,1.2004291 -5.07703,0.683505 -16.20244,-3.2683055 -8.23445,-2.9249222 -14.28192,-2.8717472 -20.80975,0.1829821 -7.03403,3.2916259 -17.90239,11.6698243 -28.78852,22.1924837 l -9.24007,8.931581 H -412.522 c -27.99762,0 -32.55092,-0.151078 -31.27687,-1.037757 z"
       id="path6095"
       inkscape:connector-curvature="0" />
    <path
       style="fill:#444655;fill-opacity:1;fill-rule:evenodd;stroke:none;stroke-width:0.85142857;stroke-linejoin:round;stroke-miterlimit:4;stroke-dasharray:none;stroke-opacity:1"
       d="m -437.37195,156.1715 c -3.69067,-1.67627 -7.34965,-5.89979 -8.53305,-9.84965 -0.61285,-2.04556 -0.86286,-19.11737 -0.86286,-58.921758 V 31.358334 h 190.12202 190.12203 v 56.041758 c 0,39.804388 -0.250002,56.876198 -0.862867,58.921758 -1.183404,3.94986 -4.84238,8.17338 -8.533061,9.84965 -2.925974,1.32895 -6.740374,1.39849 -77.574172,1.41428 l -74.49688,0.0166 -2.74659,-2.83482 c -1.51062,-1.55915 -5.18494,-7.42723 -8.16515,-13.04018 -8.46255,-15.93843 -9.61993,-17.799 -12.93494,-20.79391 -2.70457,-2.44342 -3.45579,-2.75124 -5.78983,-2.37248 -4.53004,0.73512 -7.73258,4.18446 -17.3339,18.66972 -5.08416,7.67034 -10.76235,15.39183 -12.61819,17.15887 l -3.37429,3.2128 -71.67049,-0.0166 c -68.08435,-0.0158 -71.82445,-0.0866 -74.74778,-1.41428 z m 127.80944,-25.25982 c 5.79498,-2.71145 11.10253,-8.29045 13.30777,-13.98841 1.43709,-3.71311 1.71196,-6.20947 2.01372,-18.288832 0.21551,-8.625218 0.0154,-16.142002 -0.52184,-19.604644 -1.50764,-9.716939 -6.35928,-16.262709 -15.08691,-20.354998 l -4.24847,-1.992059 h -44.2391 -44.2391 l -5.05504,2.488594 c -5.49776,2.706534 -9.33739,6.574023 -12.1075,12.195352 -1.63877,3.325588 -1.70447,4.231077 -1.70447,23.49165 0,19.795167 0.0222,20.077567 1.87182,23.812497 2.12828,4.29756 6.96074,9.44786 10.70896,11.41333 5.88687,3.0869 8.39623,3.23477 52.4311,3.08946 l 42.33333,-0.13969 z m 197.83332,1.65234 c 7.85419,-1.66239 13.470311,-5.84883 17.285029,-12.88488 l 2.595946,-4.78807 V 94.858333 c 0,-19.260573 -0.06569,-20.166062 -1.704499,-23.49165 -2.770095,-5.621329 -6.609716,-9.488818 -12.107476,-12.195352 l -5.05506,-2.488594 h -44.2391 -44.23911 l -4.24846,1.992059 c -8.72762,4.092289 -13.57927,10.638059 -15.08691,20.354998 -0.53609,3.455215 -0.73846,10.99792 -0.52597,19.604644 0.29253,11.849382 0.58621,14.602162 1.92017,17.999482 3.04086,7.74438 9.55144,13.59852 17.50978,15.74432 4.67536,1.26061 82.04484,1.42414 87.89566,0.18578 z"
       id="path6101"
       inkscape:connector-curvature="0" />
    <path
       style="fill:#d1a46f;fill-opacity:1;fill-rule:evenodd;stroke:none;stroke-width:0.85142857;stroke-linejoin:round;stroke-miterlimit:4;stroke-dasharray:none;stroke-opacity:1"
       d="m -136.75974,15.242314 c -3.74635,-3.817291 -8.33876,-8.2339313 -10.20536,-9.8147577 -1.8666,-1.5808256 -4.08613,-3.5368523 -4.9323,-4.346726 -0.84618,-0.80987295 -1.76067,-1.47249697 -2.03222,-1.47249697 -0.27154,0 -1.59358,-1.00456473 -2.93785,-2.23236513 -1.34426,-1.2278012 -2.69033,-2.0802011 -2.99125,-1.8942231 -0.30092,0.1859786 -0.75046,-0.1917321 -0.99898,-0.839358 -0.24851,-0.6476254 -0.79443,-0.9657739 -1.21314,-0.7069963 -0.41871,0.2587768 -0.76129,0.1405951 -0.76129,-0.262627 0,-1.1621701 -6.30293,-3.9037808 -10.50008,-4.5672618 -4.36991,-0.690788 -9.98544,0.211171 -19.73801,3.170289 -7.77955,2.3604643 -10.46952,2.6459566 -12.532,1.3300485 -1.42753,-0.910795 -1.5113,-1.3891413 -0.9191,-5.2483305 0.84574,-5.511479 7.08275,-18.316711 11.19347,-22.981368 1.75268,-1.988867 4.25333,-4.170545 5.55698,-4.848174 2.53125,-1.315718 12.57565,-2.578757 12.57565,-1.581333 0,0.327925 0.93549,0.60733 2.07887,0.620903 1.14338,0.01357 3.94985,0.721246 6.2366,1.572609 2.28676,0.851363 4.75305,1.593512 5.48066,1.649217 0.7276,0.0557 1.32291,0.314502 1.32291,0.575104 0,0.260601 1.78594,1.427395 3.96875,2.592879 2.18282,1.165482 10.26206,5.790869 17.95387,10.278641 7.69182,4.48777 14.15521,8.111181 14.3631,8.052023 0.20788,-0.05916 1.15441,0.557241 2.10338,1.369775 0.94897,0.812534 1.9695,1.468437 2.26785,1.457561 0.29836,-0.01088 1.05273,0.417133 1.67639,0.951128 0.62366,0.533995 1.4741,1.034095 1.88988,1.111334 0.41577,0.07724 1.40278,0.743049 2.19335,1.4795768 0.79057,0.736528 1.72606,1.1607406 2.07887,0.9426938 0.35281,-0.2180477 0.64147,-0.072662 0.64147,0.3230713 0,0.6976578 16.233089,10.6771144 16.246359,9.987611 0.004,-0.1888732 0.783037,0.3213947 1.732001,1.1339286 0.948974,0.8125338 1.799421,1.3228018 1.889888,1.1339285 0.0905,-0.1888731 0.844837,0.2391341 1.676381,0.9511273 0.831547,0.711993 1.773651,1.2846547 2.093558,1.2725815 0.3199,-0.012073 1.306914,0.6537354 2.193349,1.4795765 0.886439,0.8258407 1.900367,1.3231267 2.253171,1.1050799 0.352811,-0.2180476 0.641471,-0.068527 0.641471,0.3322719 0,0.6730667 12.238104,8.2684789 12.662202,7.8586239 0.103944,-0.100452 0.88175,0.510124 1.728462,1.356837 0.846719,0.846712 1.831604,1.358934 2.188649,1.13827 0.357042,-0.220664 0.824667,0.05614 1.03917,0.615125 0.534691,1.393395 -12.416314,2.006574 -41.052991,1.943698 l -22.3006,-0.04896 -6.81154,-6.940529 z"
       id="path6103"
       inkscape:connector-curvature="0" />
  </g>
</svg>
