<?xml version="1.0" encoding="UTF-8" standalone="no"?>
<!-- Created with Inkscape (http://www.inkscape.org/) -->

<svg
   xmlns:dc="http://purl.org/dc/elements/1.1/"
   xmlns:cc="http://creativecommons.org/ns#"
   xmlns:rdf="http://www.w3.org/1999/02/22-rdf-syntax-ns#"
   xmlns:svg="http://www.w3.org/2000/svg"
   xmlns="http://www.w3.org/2000/svg"
   xmlns:sodipodi="http://sodipodi.sourceforge.net/DTD/sodipodi-0.dtd"
   xmlns:inkscape="http://www.inkscape.org/namespaces/inkscape"
   width="210mm"
   height="297mm"
   viewBox="0 0 210 297"
   version="1.1"
   id="svg8"
   sodipodi:docname="aboutCol23.svg"
   inkscape:version="0.92.4 (5da689c313, 2019-01-14)">
  <defs
     id="defs2" />
  <sodipodi:namedview
     id="base"
     pagecolor="#ffffff"
     bordercolor="#666666"
     borderopacity="1.0"
     inkscape:pageopacity="0.0"
     inkscape:pageshadow="2"
     inkscape:zoom="0.24748737"
     inkscape:cx="-1525.6884"
     inkscape:cy="1320.3311"
     inkscape:document-units="mm"
     inkscape:current-layer="layer1"
     showgrid="false"
     inkscape:snap-nodes="false"
     inkscape:snap-bbox="true"
     inkscape:snap-text-baseline="false"
     inkscape:window-width="1920"
     inkscape:window-height="1017"
     inkscape:window-x="1912"
     inkscape:window-y="-8"
     inkscape:window-maximized="1"
     showguides="true"
     inkscape:guide-bbox="true" />
  <metadata
     id="metadata5">
    <rdf:RDF>
      <cc:Work
         rdf:about="">
        <dc:format>image/svg+xml</dc:format>
        <dc:type
           rdf:resource="http://purl.org/dc/dcmitype/StillImage" />
        <dc:title></dc:title>
        <dc:title></dc:title>
      </cc:Work>
    </rdf:RDF>
  </metadata>
  <g
     inkscape:label="Layer 1"
     inkscape:groupmode="layer"
     id="layer1">
    <path
       style="fill:#d1a46f;fill-opacity:1;fill-rule:evenodd;stroke:none;stroke-width:0.85142857;stroke-linejoin:round;stroke-miterlimit:4;stroke-dasharray:none;stroke-opacity:1"
       d="m -443.79887,21.249148 c 1.76128,-1.22578 35.57633,-21.75766676 66.50302,-40.379426 32.0965,-19.326136 38.38559,-22.154821 49.55683,-22.28948 8.16851,-0.09847 11.1256,1.671608 16.76289,10.034045 5.82372,8.638983 9.04727,16.382381 8.74823,21.014452 -0.1992,3.0856074 -0.51945,3.6808849 -2.48531,4.6194247 -2.51441,1.2004291 -5.07703,0.683505 -16.20244,-3.2683055 -8.23445,-2.9249222 -14.28192,-2.8717472 -20.80975,0.1829821 -7.03403,3.2916259 -17.90239,11.6698243 -28.78852,22.1924837 l -9.24007,8.931581 H -412.522 c -27.99762,0 -32.55092,-0.151078 -31.27687,-1.037757 z"
       id="path6095"
       inkscape:connector-curvature="0" />
    <path
       style="fill:#444655;fill-opacity:1;fill-rule:evenodd;stroke:none;stroke-width:0.85142857;stroke-linejoin:round;stroke-miterlimit:4;stroke-dasharray:none;stroke-opacity:1"
       d="m -437.37195,156.1715 c -3.69067,-1.67627 -7.34965,-5.89979 -8.53305,-9.84965 -0.61285,-2.04556 -0.86286,-19.11737 -0.86286,-58.921758 V 31.358334 h 190.12202 190.12203 v 56.041758 c 0,39.804388 -0.250002,56.876198 -0.862867,58.921758 -1.183404,3.94986 -4.84238,8.17338 -8.533061,9.84965 -2.925974,1.32895 -6.740374,1.39849 -77.574172,1.41428 l -69.41876,0.81841 c -2.86276,-0.44865 -5.66314,-1.08443 -7.82471,-3.63663 -1.51062,-1.55915 -5.18494,-7.42723 -8.16515,-13.04018 -8.46255,-15.93843 -9.61993,-17.799 -12.93494,-20.79391 -2.70457,-2.44342 -3.45579,-2.75124 -5.78983,-2.37248 -4.53004,0.73512 -7.73258,4.18446 -17.3339,18.66972 -5.08416,7.67034 -9.426,14.59002 -11.28184,16.35706 -3.36594,3.14786 -5.41634,3.66464 -7.38334,4.01461 -34.07913,0.86732 -45.10763,-0.10016 -68.99779,-0.0166 -68.08393,0.23813 -71.82445,-0.0866 -74.74778,-1.41428 z m 129.41306,-24.72528 c 7.78177,-1.53964 9.49891,-8.82499 11.70415,-14.52295 1.43709,-3.71311 1.71196,-6.20947 2.01372,-18.288832 0.21551,-8.625218 0.0154,-16.142002 -0.52184,-19.604644 -1.50764,-9.716939 -6.35928,-16.262709 -15.08691,-20.354998 l -6.92117,-1.992059 h -41.5664 l -44.50637,0.534539 -5.05504,0.884977 c -5.49776,2.706534 -9.07012,7.643101 -11.84023,13.26443 -1.63877,3.325588 -1.70447,4.231077 -1.70447,23.49165 0,19.795167 0.0222,20.077567 1.87182,23.812497 2.12828,4.29756 6.96074,9.44786 10.70896,11.41333 5.88687,3.0869 8.39623,3.23477 52.4311,3.08946 l 41.79879,-0.40696 z m 196.2297,1.1178 c 7.85419,-1.66239 13.470311,-5.84883 17.285029,-12.88488 l 2.061407,-5.05534 0.534539,-19.765467 c 0.520694,-19.253533 -0.06569,-20.166062 -1.704499,-23.49165 -2.770095,-5.621329 -4.290863,-9.319635 -9.702046,-12.195352 -5.04395,-2.680548 -7.6396,-1.72081 -10.13319,-2.488594 h -41.5664 l -36.48829,0.534539 c -4.88491,0.190791 -9.23982,0.558249 -11.99928,1.45752 -9.16501,2.986752 -13.57927,10.638059 -15.08691,20.354998 -0.53609,3.455215 -0.73846,10.99792 -0.52597,19.604644 0.29253,11.849382 0.58621,14.602162 1.92017,17.999482 3.04086,7.74438 9.55144,13.59852 17.50978,15.74432 4.67536,1.26061 82.04484,1.42414 87.89566,0.18578 z"
       id="path6101"
       inkscape:connector-curvature="0"
       sodipodi:nodetypes="ccscccssssccscssccscscccscccccsccscssccscscccscccss" />
    <path
       style="fill:#d1a46f;fill-opacity:1;fill-rule:evenodd;stroke:none;stroke-width:0.85142857;stroke-linejoin:round;stroke-miterlimit:4;stroke-dasharray:none;stroke-opacity:1"
       d="m -67.639357,21.052003 c -1.76128,-1.22578 -35.576333,-21.75766568 -66.503023,-40.379427 -32.0965,-19.326136 -38.38559,-22.154822 -49.55683,-22.289481 -8.16851,-0.09847 -11.1256,1.671608 -16.76289,10.034046 -5.82372,8.638983 -9.04727,16.382381 -8.74823,21.014453 0.1992,3.0856082 0.51945,3.6808862 2.48531,4.6194242 2.51441,1.20043 5.07703,0.683506 16.20244,-3.268305 8.23445,-2.9249232 14.28192,-2.8717492 20.80975,0.182983 7.03403,3.291625 17.90239,11.669823 28.78852,22.1924808 l 9.24007,8.931582 h 32.768013 c 27.99762,0 32.55092,-0.151077 31.27687,-1.037756 z"
       id="path6095-8"
       inkscape:connector-curvature="0" />
  </g>
</svg>
