<?xml version="1.0" encoding="UTF-8" standalone="no"?>
<!-- Generated by IcoMoon.io -->

<svg
   xmlns:dc="http://purl.org/dc/elements/1.1/"
   xmlns:cc="http://creativecommons.org/ns#"
   xmlns:rdf="http://www.w3.org/1999/02/22-rdf-syntax-ns#"
   xmlns:svg="http://www.w3.org/2000/svg"
   xmlns="http://www.w3.org/2000/svg"
   xmlns:sodipodi="http://sodipodi.sourceforge.net/DTD/sodipodi-0.dtd"
   xmlns:inkscape="http://www.inkscape.org/namespaces/inkscape"
   version="1.1"
   width="90.427032"
   height="59.859055"
   viewBox="0 0 90.427031 59.859057"
   id="svg6736"
   sodipodi:docname="eduIN.svg"
   inkscape:version="0.92.4 (5da689c313, 2019-01-14)">
  <metadata
     id="metadata6742">
    <rdf:RDF>
      <cc:Work
         rdf:about="">
        <dc:format>image/svg+xml</dc:format>
        <dc:type
           rdf:resource="http://purl.org/dc/dcmitype/StillImage" />
        <dc:title>edu</dc:title>
      </cc:Work>
    </rdf:RDF>
  </metadata>
  <defs
     id="defs6740" />
  <sodipodi:namedview
     pagecolor="#ffffff"
     bordercolor="#666666"
     borderopacity="1"
     objecttolerance="10"
     gridtolerance="10"
     guidetolerance="10"
     inkscape:pageopacity="0"
     inkscape:pageshadow="2"
     inkscape:window-width="1920"
     inkscape:window-height="1017"
     id="namedview6738"
     showgrid="false"
     fit-margin-top="0.3"
     fit-margin-right="0.3"
     fit-margin-bottom="0.3"
     fit-margin-left="0.3"
     inkscape:zoom="6.9826795"
     inkscape:cx="39.475175"
     inkscape:cy="30.312291"
     inkscape:window-x="1912"
     inkscape:window-y="-8"
     inkscape:window-maximized="1"
     inkscape:current-layer="svg6736"
     inkscape:showpageshadow="false" />
  <title
     id="title6732">edu</title>
  <path
     style="fill:#444b55;fill-opacity:1;fill-rule:evenodd;stroke:none;stroke-width:0.13034993;stroke-linejoin:round;stroke-miterlimit:4;stroke-dasharray:none;stroke-opacity:1"
     d="m 42.009579,59.462179 c -4.847241,-0.313644 -9.297266,-1.520147 -12.644777,-3.428286 -0.989439,-0.564 -2.615946,-1.785162 -3.197406,-2.400578 l -0.407604,-0.431408 v -8.490501 -8.490499 l 0.624994,-0.613449 c 4.026673,-3.952317 9.572305,-6.490719 16.005222,-7.326083 1.689559,-0.219404 6.051846,-0.184887 7.822127,0.06186 6.050394,0.843411 11.409336,3.29469 15.302567,6.999668 l 0.896727,0.85337 v 8.49906 8.499063 l -0.494042,0.397952 c -0.73334,0.590702 -2.338724,1.561298 -3.803862,2.299762 -5.462334,2.753148 -12.74422,4.046262 -20.103946,3.570046 z M 49.67252,55.89641 c 5.204256,-0.365701 9.198602,-1.26418 11.521584,-2.591646 1.820977,-1.0406 2.270019,-2.15949 1.336687,-3.330704 -2.335762,-2.931103 -13.911942,-4.589571 -23.510303,-3.368218 -8.032607,1.022118 -12.029399,3.426122 -9.715783,5.84388 2.371789,2.478562 11.694394,4.056153 20.367815,3.446688 z"
     id="path6744"
     inkscape:connector-curvature="0" />
  <path
     style="fill:#444b55;fill-opacity:1;fill-rule:evenodd;stroke:none;stroke-width:0.13034993;stroke-linejoin:round;stroke-miterlimit:4;stroke-dasharray:none;stroke-opacity:1"
     d="m 8.7406485,53.22015 c 0.03327,-0.118625 0.517178,-1.654178 1.075347,-3.412385 L 10.830847,46.611027 10.334159,46.23417 C 9.4439665,45.558738 8.8970615,44.157062 9.0702545,42.994871 c 0.115675,-0.776215 0.664019,-1.735687 1.2042985,-2.107236 l 0.47857,-0.329112 0.0035,-5.730463 0.0035,-5.730458 -5.1901529,-2.447827 C 2.7152547,25.303475 0.34385943,24.165065 0.30006903,24.119991 0.23527633,24.053286 45.8065,0.77221687 46.900807,0.31296277 47.209604,0.18336658 48.36177,0.81374357 68.634755,12.204109 c 11.774325,6.615397 21.445692,12.070877 21.491924,12.123296 0.04623,0.05242 -4.446,2.156933 -9.982743,4.676705 l -10.066805,4.58141 -0.827436,-0.866999 c -3.755579,-3.935157 -9.407679,-7.513953 -14.482178,-9.169843 -4.76359,-1.554426 -9.738384,-1.724273 -14.683794,-0.501322 -5.954055,1.472379 -13.034118,5.109859 -18.702169,9.608488 l -1.160693,0.921221 -3.615383,-1.715631 C 14.617016,30.917835 12.952988,30.1458 12.907639,30.1458 c -0.04535,0 -0.08245,2.322273 -0.08245,5.160602 v 5.160606 l 0.347356,0.163097 c 2.121161,0.996091 2.121161,4.775621 0,5.771712 -0.191043,0.08971 -0.347356,0.219747 -0.347356,0.288932 0,0.06921 0.464668,1.59245 1.032596,3.385015 0.567926,1.792564 1.032593,3.281887 1.032593,3.309608 0,0.02775 -1.397297,0.0504 -3.105108,0.0504 -2.9078305,0 -3.1012675,-0.01376 -3.0446165,-0.215656 z"
     id="path6746"
     inkscape:connector-curvature="0" />
  <path
     style="fill:#d1a46f;fill-opacity:0.99607843;fill-rule:evenodd;stroke:none;stroke-width:0.13034993;stroke-linejoin:round;stroke-miterlimit:4;stroke-dasharray:none;stroke-opacity:1"
     d="m 42.215115,59.447878 c -0.232607,-0.04824 -0.643031,-0.09042 -0.912046,-0.09374 -0.462099,-0.0054 -0.840101,-0.04238 -2.119543,-0.205427 -0.298909,-0.0381 -0.66575,-0.08475 -0.815201,-0.103711 -0.149454,-0.01892 -0.357336,-0.07475 -0.461954,-0.124003 -0.104569,-0.04928 -0.262015,-0.05834 -0.349775,-0.02017 -0.08776,0.03821 -0.190274,0.01335 -0.227769,-0.05571 -0.03751,-0.06882 -0.173574,-0.113603 -0.30239,-0.09951 -0.128803,0.01431 -0.312479,-0.01335 -0.408178,-0.06048 -0.09567,-0.04738 -0.217976,-0.07448 -0.271734,-0.06037 -0.05378,0.01432 -0.171122,-0.0087 -0.260783,-0.05003 -0.334305,-0.155287 -2.010466,-0.556253 -2.090621,-0.500088 -0.04581,0.03205 -0.08327,0.0055 -0.08327,-0.05844 0,-0.09975 -0.580141,-0.302329 -0.923905,-0.322637 -0.05976,-0.0036 -0.138985,-0.05341 -0.176015,-0.110864 -0.03705,-0.05745 -0.195943,-0.112871 -0.353182,-0.123224 -0.157223,-0.01023 -0.285893,-0.0663 -0.285932,-0.124374 -4.5e-5,-0.05806 -0.07344,-0.07368 -0.163099,-0.03469 -0.08967,0.03901 -0.163046,0.02609 -0.163046,-0.0287 0,-0.09633 -0.892164,-0.480357 -0.954954,-0.411032 -0.01731,0.01892 -0.106178,-0.05085 -0.197974,-0.154968 -0.146326,-0.165895 -0.300094,-0.216164 -0.546846,-0.178701 -0.03814,0.0055 -0.09929,-0.04241 -0.13586,-0.107067 -0.03658,-0.06469 -0.335519,-0.270321 -0.664316,-0.45699 -0.840589,-0.477246 -2.341122,-1.59321 -3.016261,-2.243257 l -0.570662,-0.549483 v -8.433627 -8.433629 l 0.489387,-0.531614 c 0.269165,-0.292386 0.50815,-0.510344 0.531079,-0.484345 0.02292,0.02597 0.145089,-0.101783 0.271474,-0.28391 0.126357,-0.182147 0.22978,-0.296088 0.22978,-0.253199 0,0.09992 1.332377,-1.008758 1.438535,-1.19702 0.04393,-0.07789 0.08058,-0.105367 0.08153,-0.06102 9.1e-4,0.04433 0.405192,-0.195677 0.898388,-0.533316 0.493199,-0.337654 1.361395,-0.86961 1.929321,-1.182117 0.567929,-0.312506 1.062521,-0.617913 1.099097,-0.678678 0.03658,-0.06074 0.09775,-0.105716 0.135876,-0.09994 0.236384,0.03586 0.397464,-0.0087 0.523553,-0.143516 0.07902,-0.08471 0.216997,-0.163335 0.306674,-0.17471 0.08966,-0.0114 0.817129,-0.274767 1.616575,-0.585332 0.799447,-0.310561 1.520901,-0.564655 1.603239,-0.564655 0.08236,0 0.149712,-0.05026 0.149712,-0.111656 0,-0.06144 0.09784,-0.08269 0.217389,-0.04722 0.119591,0.03545 0.217389,0.0074 0.217389,-0.06162 0,-0.06933 0.09784,-0.09707 0.217389,-0.06162 0.119591,0.03544 0.217648,0.01633 0.217952,-0.04237 3.26e-4,-0.05873 0.208131,-0.120397 0.461792,-0.137045 0.253673,-0.01651 0.475233,-0.07791 0.492352,-0.136096 0.01731,-0.05822 0.151695,-0.07971 0.299067,-0.04779 0.147384,0.03197 0.268295,0.01002 0.268726,-0.04872 4.32e-4,-0.05874 0.252305,-0.120745 0.559727,-0.137766 0.307421,-0.01692 0.617276,-0.08587 0.68856,-0.152997 0.0713,-0.06709 0.154504,-0.09374 0.184916,-0.05927 0.03044,0.03452 0.417221,0.0037 0.859554,-0.06804 0.442332,-0.07193 1.122169,-0.153301 1.510753,-0.180868 1.17378,-0.08324 4.878854,-0.0856 4.996521,-0.0033 0.06043,0.04236 0.391655,0.07107 0.736,0.06378 0.344351,-0.0071 0.985632,0.04891 1.425066,0.124857 0.439442,0.07597 0.826243,0.107188 0.859558,0.06943 0.03332,-0.03779 0.117836,-0.01482 0.187865,0.0511 0.07001,0.06586 0.367979,0.142891 0.662165,0.171171 0.294181,0.02828 0.608252,0.08194 0.697924,0.119207 0.456952,0.190045 2.533064,0.68808 2.618572,0.628167 0.05433,-0.03808 0.09879,-0.0183 0.09879,0.0441 0,0.13655 1.188816,0.536676 1.320442,0.444452 0.05092,-0.03569 0.09254,-0.01814 0.09254,0.03901 0,0.138229 0.974855,0.543684 1.098693,0.456919 0.05332,-0.03736 0.09694,-0.01752 0.09694,0.04388 0,0.143065 0.868889,0.533882 0.993244,0.446755 0.05154,-0.03614 0.09371,-0.01716 0.09371,0.042 0,0.150625 0.753647,0.542604 0.877022,0.456159 0.05568,-0.039 0.101241,-0.0091 0.101241,0.06684 0,0.07573 0.04893,0.103527 0.108679,0.06162 0.05976,-0.04189 0.10868,-0.01432 0.10868,0.06162 0,0.07583 0.0489,0.103527 0.10868,0.06162 0.05976,-0.04189 0.108679,-0.01432 0.108679,0.06162 0,0.07575 0.04891,0.103528 0.10868,0.06162 0.05976,-0.04189 0.108679,-0.01432 0.108679,0.06162 0,0.07575 0.0489,0.103527 0.10868,0.06162 0.05976,-0.04189 0.108679,-0.01432 0.108679,0.06162 0,0.07574 0.0489,0.103526 0.10868,0.06162 0.05976,-0.04189 0.108679,-0.02764 0.108679,0.03165 0,0.0593 0.195662,0.23247 0.43478,0.38484 0.239125,0.152374 0.434777,0.245758 0.434777,0.207527 0,-0.03826 0.0996,0.04345 0.221349,0.181457 0.121735,0.138013 0.268483,0.217922 0.32608,0.177562 0.0576,-0.04035 0.104734,-0.02039 0.104734,0.04428 0,0.137498 1.097935,0.958977 1.220963,0.913517 0.04585,-0.01692 0.08339,0.01266 0.08339,0.06634 0,0.05345 0.513584,0.55901 1.141291,1.123491 l 1.141288,1.026325 v 8.478832 8.478827 l -0.815204,0.585463 c -0.448364,0.322003 -0.815206,0.640479 -0.815206,0.707717 0,0.06726 -0.02911,0.08929 -0.06464,0.04903 -0.06248,-0.07083 -2.796906,1.386596 -3.04874,1.624944 -0.06835,0.06469 -0.147913,0.09085 -0.176743,0.05814 -0.04926,-0.05582 -0.830504,0.309712 -0.948937,0.443985 -0.02986,0.03386 -0.10327,0.06162 -0.163048,0.06162 -0.153935,0 -2.053869,0.712156 -2.119537,0.79447 -0.02985,0.03749 -0.201076,0.08585 -0.380428,0.107559 -0.179367,0.02166 -0.34066,0.08508 -0.35847,0.140966 -0.01792,0.05588 -0.127853,0.07325 -0.244564,0.03862 -0.116695,-0.03461 -0.212212,-0.01481 -0.212232,0.04388 -4e-5,0.05873 -0.122487,0.114807 -0.272146,0.124582 -0.14962,0.0098 -0.357477,0.05991 -0.461871,0.111347 -0.104392,0.05142 -0.275402,0.08159 -0.380024,0.06685 -0.104592,-0.01466 -0.190217,0.03551 -0.190217,0.111533 0,0.07606 -0.04409,0.107351 -0.09799,0.06959 -0.09373,-0.06568 -1.627336,0.236754 -1.967186,0.387926 -0.08969,0.03987 -0.268425,0.06101 -0.397223,0.04695 -0.12879,-0.01431 -0.263357,0.02791 -0.299021,0.09331 -0.03565,0.06545 -0.16186,0.09014 -0.280487,0.05499 -0.118597,-0.03516 -0.301985,-0.02483 -0.407498,0.02287 -0.105529,0.04783 -0.50977,0.110814 -0.898349,0.140039 -0.388585,0.02921 -0.779883,0.08487 -0.869554,0.123694 -0.08965,0.03883 -0.383149,0.08445 -0.652165,0.10138 -0.269021,0.01684 -0.90488,0.06304 -1.413023,0.102426 -1.485416,0.115339 -5.800677,0.158993 -6.261772,0.06343 z m 8.326957,-3.586629 c 1.964269,-0.188785 3.3748,-0.377935 4.647029,-0.623179 0.164195,-0.03166 0.46975,-0.08373 0.678988,-0.115635 0.645501,-0.09862 1.244793,-0.236758 1.358677,-0.313231 0.05976,-0.04015 0.157619,-0.07621 0.217388,-0.08008 0.358898,-0.02363 1.040988,-0.223175 1.093884,-0.320199 0.03433,-0.06298 0.103855,-0.08548 0.154472,-0.04999 0.05063,0.0355 0.230675,-6.16e-4 0.400095,-0.08008 0.169407,-0.07955 0.344714,-0.156181 0.389549,-0.170317 0.04486,-0.01432 0.09374,-0.03689 0.10868,-0.05055 0.01511,-0.01377 0.100547,-0.04156 0.190214,-0.06201 0.08966,-0.02039 0.35869,-0.135945 0.597818,-0.25669 0.239123,-0.120744 0.459232,-0.227264 0.489124,-0.236707 0.343027,-0.10855 0.543468,-0.227091 0.543468,-0.321455 0,-0.0632 0.06635,-0.114944 0.147415,-0.114944 0.191007,0 1.156917,-0.835117 1.156917,-1.000269 0,-0.06948 0.06564,-0.200804 0.145861,-0.291759 0.156472,-0.177402 0.162813,-0.831422 0.01213,-1.234137 -0.134741,-0.359801 -0.820857,-1.17066 -0.990541,-1.17066 -0.08008,0 -0.145603,-0.04597 -0.145603,-0.102186 0,-0.08904 -1.016705,-0.691424 -1.186812,-0.703184 -0.03478,-0.0021 -0.173225,-0.07368 -0.307733,-0.158349 -0.13453,-0.08469 -0.244561,-0.117522 -0.244561,-0.07297 0,0.04455 -0.06115,0.02447 -0.135874,-0.04471 -0.16676,-0.154329 -1.277159,-0.534482 -1.277159,-0.43723 0,0.03857 -0.06117,0.01431 -0.135858,-0.05403 -0.128126,-0.117012 -0.394062,-0.19698 -1.085146,-0.32633 -0.163415,-0.0306 -0.336212,-0.083 -0.383994,-0.11648 -0.04778,-0.03347 -0.305376,-0.09163 -0.57244,-0.129191 -0.267055,-0.03761 -0.607841,-0.09911 -0.757296,-0.136785 -0.149455,-0.03763 -0.442926,-0.09715 -0.652162,-0.132257 -0.209239,-0.03509 -0.527166,-0.08908 -0.706512,-0.119977 -2.491977,-0.429046 -4.967982,-0.601408 -8.586845,-0.597756 -3.233606,0.0033 -4.692705,0.07944 -6.630345,0.346114 -0.239129,0.0329 -0.654884,0.08996 -0.923902,0.126713 -0.269018,0.03675 -0.635861,0.09374 -0.81521,0.126549 -0.179343,0.03283 -0.592588,0.09269 -0.918322,0.133028 -0.325732,0.04035 -0.634228,0.102797 -0.685549,0.138737 -0.09219,0.06459 -0.166528,0.08129 -0.98943,0.222345 -0.23068,0.03952 -0.505497,0.124127 -0.610702,0.187958 -0.105231,0.06382 -0.218911,0.08474 -0.252686,0.04645 -0.03377,-0.03826 -0.125809,-0.02383 -0.204506,0.03203 -0.07872,0.05593 -0.264159,0.120484 -0.412125,0.143499 -0.147988,0.02311 -0.323656,0.09329 -0.390429,0.156097 -0.06676,0.06287 -0.146842,0.08542 -0.177903,0.05017 -0.07523,-0.08527 -1.644137,0.557552 -1.729115,0.708481 -0.03658,0.06496 -0.09979,0.107644 -0.140526,0.09481 -0.135679,-0.04266 -0.71687,0.27686 -0.71687,0.394141 0,0.06354 -0.04641,0.083 -0.103181,0.04324 -0.170571,-0.119504 -1.276146,1.205337 -1.357874,1.627197 -0.09203,0.475115 0.20184,1.175321 0.706922,1.684309 0.363524,0.366333 1.949785,1.365698 1.949785,1.22839 0,-0.04186 0.06117,-0.02129 0.13586,0.04582 0.145785,0.130786 1.372594,0.601055 1.820629,0.69785 0.149455,0.03229 0.430701,0.113554 0.624994,0.180497 0.194304,0.06696 0.353255,0.09598 0.353255,0.06444 0,-0.03155 0.08844,-0.0036 0.196554,0.06189 0.108129,0.0656 0.413805,0.153739 0.679339,0.195814 0.265528,0.0421 0.580603,0.09854 0.700172,0.125394 1.506853,0.338315 3.487216,0.60456 5.539084,0.744709 0.535662,0.03658 0.995316,0.09076 1.02145,0.120397 0.06446,0.07306 7.281513,-0.01851 8.167532,-0.103745 z"
     id="path6748"
     inkscape:connector-curvature="0" />
</svg>
