<?xml version="1.0" encoding="UTF-8" standalone="no"?>
<!-- Generated by IcoMoon.io -->

<svg
   xmlns:dc="http://purl.org/dc/elements/1.1/"
   xmlns:cc="http://creativecommons.org/ns#"
   xmlns:rdf="http://www.w3.org/1999/02/22-rdf-syntax-ns#"
   xmlns:svg="http://www.w3.org/2000/svg"
   xmlns="http://www.w3.org/2000/svg"
   xmlns:sodipodi="http://sodipodi.sourceforge.net/DTD/sodipodi-0.dtd"
   xmlns:inkscape="http://www.inkscape.org/namespaces/inkscape"
   version="1.1"
   width="50.924911"
   height="59.739269"
   viewBox="0 0 50.924912 59.73927"
   id="svg10857"
   sodipodi:docname="labIN.svg"
   inkscape:version="0.92.4 (5da689c313, 2019-01-14)">
  <metadata
     id="metadata10863">
    <rdf:RDF>
      <cc:Work
         rdf:about="">
        <dc:format>image/svg+xml</dc:format>
        <dc:type
           rdf:resource="http://purl.org/dc/dcmitype/StillImage" />
        <dc:title></dc:title>
      </cc:Work>
    </rdf:RDF>
  </metadata>
  <defs
     id="defs10861" />
  <sodipodi:namedview
     pagecolor="#ffffff"
     bordercolor="#666666"
     borderopacity="1"
     objecttolerance="10"
     gridtolerance="10"
     guidetolerance="10"
     inkscape:pageopacity="0"
     inkscape:pageshadow="2"
     inkscape:window-width="1920"
     inkscape:window-height="1017"
     id="namedview10859"
     showgrid="false"
     inkscape:zoom="7.375"
     inkscape:cx="17.072478"
     inkscape:cy="35.311629"
     inkscape:window-x="1912"
     inkscape:window-y="-8"
     inkscape:window-maximized="1"
     inkscape:current-layer="svg10857"
     fit-margin-top="0.3"
     fit-margin-left="0.3"
     fit-margin-right="0.3"
     fit-margin-bottom="0.3"
     inkscape:showpageshadow="false" />
  <g
     id="icomoon-ignore"
     transform="translate(-441.83771,-453.98417)" />
  <path
     style="fill:#444655;fill-opacity:0.99607843;fill-rule:evenodd;stroke:none;stroke-width:0.27153647;stroke-linejoin:round;stroke-miterlimit:4;stroke-dasharray:none;stroke-opacity:1"
     d="M 4.7111877,58.917002 C 2.8808918,58.285205 0.93166364,56.358271 0.54028464,54.793798 0.17420894,53.330443 0.22890384,51.513631 0.68738534,49.907706 0.93779614,49.030598 4.4143898,42.45325 9.9241444,32.432725 L 18.759357,16.364249 V 10.094043 3.8238451 h -1.253292 c -1.078913,0 -1.319889,-0.092275 -1.731893,-0.6631984 -0.628508,-0.8709401 -0.604239,-1.4880654 0.0882,-2.24282874 L 16.429176,0.3 h 9.026829 9.026831 l 0.566802,0.61781796 c 0.692447,0.75476334 0.716716,1.37188864 0.08822,2.24282874 -0.41201,0.5709226 -0.652979,0.6631984 -1.731894,0.6631984 h -1.253296 v 6.2701979 6.270206 l 8.84561,16.075685 c 9.148447,16.626062 9.62961,17.637265 9.626621,20.230901 -0.0025,1.978148 -0.414394,3.033404 -1.731578,4.433954 -0.97132,1.032782 -1.548371,1.412514 -2.773113,1.824849 -1.512653,0.509256 -1.967522,0.520368 -20.746243,0.506537 C 6.8129946,59.422508 6.1256031,59.405214 4.7111877,58.917002 Z M 40.003901,37.444779 c 0,-0.05901 -2.493924,-4.635932 -5.542058,-10.170897 L 28.919792,17.210323 V 10.517088 3.8238451 h -3.463785 -3.463783 v 6.6932429 6.693235 l -5.542058,10.063559 c -3.048126,5.534965 -5.542052,10.11187 -5.542052,10.170897 0,0.05901 6.546556,0.107335 14.547893,0.107335 8.001341,0 14.547894,-0.04832 14.547894,-0.107335 z"
     id="path10865"
     inkscape:connector-curvature="0" />
  <path
     style="fill:#d1a46f;fill-opacity:0.99607843;fill-rule:evenodd;stroke:none;stroke-width:0.32312831;stroke-linejoin:round;stroke-miterlimit:4;stroke-dasharray:none;stroke-opacity:1"
     d="M 8.9197187,45.351893 C 7.6096728,45.270955 10.112042,37.920348 14.284272,31.177108 l 6.749695,-11.539253 1.747593,-0.444375 1.299691,0.06989 c 0.48003,0.141805 0.48744,-0.01717 1.410165,-0.04722 0.464936,0.04838 0.974636,-0.03617 1.661732,-0.03134 l 1.343006,-0.02222 1.367489,-0.07563 5.827677,10.802289 c 3.523521,6.531268 7.084636,10.88551 6.563002,15.634887 0.348998,2.431619 -3.068982,1.783711 -5.286933,2.116834 -3.69586,0.06209 -7.227602,-0.204315 -11.862256,-0.142797 -3.670173,0.04872 -11.993268,0.138415 -11.993268,0.138415 -5.3957772,-0.57099 -4.4637703,-1.784534 -4.1921463,-2.284695 z"
     id="path11410"
     inkscape:connector-curvature="0"
     sodipodi:nodetypes="cscccccccsccscc" />
</svg>
