<?xml version="1.0" encoding="UTF-8" standalone="no"?>
<!-- Generated by IcoMoon.io -->

<svg
   xmlns:dc="http://purl.org/dc/elements/1.1/"
   xmlns:cc="http://creativecommons.org/ns#"
   xmlns:rdf="http://www.w3.org/1999/02/22-rdf-syntax-ns#"
   xmlns:svg="http://www.w3.org/2000/svg"
   xmlns="http://www.w3.org/2000/svg"
   xmlns:sodipodi="http://sodipodi.sourceforge.net/DTD/sodipodi-0.dtd"
   xmlns:inkscape="http://www.inkscape.org/namespaces/inkscape"
   version="1.1"
   width="52.052933"
   height="59.594318"
   viewBox="0 0 52.052933 59.594316"
   id="svg7902"
   sodipodi:docname="hobby2IN.svg"
   inkscape:version="0.92.4 (5da689c313, 2019-01-14)">
  <metadata
     id="metadata7908">
    <rdf:RDF>
      <cc:Work
         rdf:about="">
        <dc:format>image/svg+xml</dc:format>
        <dc:type
           rdf:resource="http://purl.org/dc/dcmitype/StillImage" />
        <dc:title>hobby2</dc:title>
      </cc:Work>
    </rdf:RDF>
  </metadata>
  <defs
     id="defs7906" />
  <sodipodi:namedview
     pagecolor="#ffffff"
     bordercolor="#666666"
     borderopacity="1"
     objecttolerance="10"
     gridtolerance="10"
     guidetolerance="10"
     inkscape:pageopacity="0"
     inkscape:pageshadow="2"
     inkscape:window-width="1920"
     inkscape:window-height="1017"
     id="namedview7904"
     showgrid="false"
     inkscape:showpageshadow="false"
     fit-margin-top="0.3"
     fit-margin-left="0.3"
     fit-margin-right="0.3"
     fit-margin-bottom="0.3"
     inkscape:zoom="7.375"
     inkscape:cx="6.0402413"
     inkscape:cy="33.006298"
     inkscape:window-x="1912"
     inkscape:window-y="-8"
     inkscape:window-maximized="1"
     inkscape:current-layer="svg7902" />
  <title
     id="title7896">hobby2</title>
  <path
     style="fill:#d1a46f;fill-opacity:0.99607843;fill-rule:evenodd;stroke:none;stroke-width:0.28268844;stroke-linejoin:round;stroke-miterlimit:4;stroke-dasharray:none;stroke-opacity:1"
     d="M 8.3155307,51.445255 C 7.5064183,50.808807 7.4339632,49.67581 8.1561842,48.953583 8.6487343,48.461033 8.992812,48.451604 26.478364,48.451604 h 17.820203 v 1.756923 1.756922 H 26.637711 c -17.486972,0 -17.6673723,-0.0053 -18.3221803,-0.520194 z"
     id="path7940"
     inkscape:connector-curvature="0" />
  <path
     style="fill:#444655;fill-opacity:1;fill-rule:evenodd;stroke:none;stroke-width:0.28268844;stroke-linejoin:round;stroke-miterlimit:4;stroke-dasharray:none;stroke-opacity:1"
     d="M 5.2453904,58.932315 C 3.8952586,58.450708 2.4559876,57.446742 1.7059093,56.463336 0.24743741,54.551184 0.30024073,55.550395 0.30024073,29.863451 c 0,-16.809445 0.0815449,-23.8671613 0.28352733,-24.5413426 C 1.0608919,3.7296074 2.5374475,2.0349187 4.179752,1.1948839 L 5.6605483,0.43745907 25.067402,0.36872954 44.474257,0.3 v 22.092988 22.093001 l -18.00844,0.01102 c -14.386735,0.009 -18.1978329,0.0786 -18.9501602,0.347072 -4.0281063,1.437489 -5.122132,6.54551 -2.0303874,9.479894 1.5946373,1.513468 0.7080083,1.456493 22.6666606,1.456493 H 48.239089 V 31.811052 7.8416271 h 1.756925 1.756919 V 33.567973 59.294319 L 28.975705,59.283293 C 10.474319,59.274198 6.0195584,59.208414 5.2453904,58.932298 Z"
     id="path8489"
     inkscape:connector-curvature="0" />
</svg>
