<?xml version="1.0" encoding="UTF-8" standalone="no"?>
<!-- Generated by IcoMoon.io -->

<svg
   xmlns:dc="http://purl.org/dc/elements/1.1/"
   xmlns:cc="http://creativecommons.org/ns#"
   xmlns:rdf="http://www.w3.org/1999/02/22-rdf-syntax-ns#"
   xmlns:svg="http://www.w3.org/2000/svg"
   xmlns="http://www.w3.org/2000/svg"
   xmlns:sodipodi="http://sodipodi.sourceforge.net/DTD/sodipodi-0.dtd"
   xmlns:inkscape="http://www.inkscape.org/namespaces/inkscape"
   version="1.1"
   width="76.844162"
   height="59.503593"
   viewBox="0 0 76.844162 59.503593"
   id="svg9639"
   sodipodi:docname="projects2IN.svg"
   inkscape:version="0.92.4 (5da689c313, 2019-01-14)">
  <metadata
     id="metadata9645">
    <rdf:RDF>
      <cc:Work
         rdf:about="">
        <dc:format>image/svg+xml</dc:format>
        <dc:type
           rdf:resource="http://purl.org/dc/dcmitype/StillImage" />
        <dc:title>projects2</dc:title>
      </cc:Work>
    </rdf:RDF>
  </metadata>
  <defs
     id="defs9643" />
  <sodipodi:namedview
     pagecolor="#ffffff"
     bordercolor="#666666"
     borderopacity="1"
     objecttolerance="10"
     gridtolerance="10"
     guidetolerance="10"
     inkscape:pageopacity="0"
     inkscape:pageshadow="2"
     inkscape:window-width="1920"
     inkscape:window-height="1017"
     id="namedview9641"
     showgrid="false"
     inkscape:showpageshadow="false"
     fit-margin-top="0.3"
     fit-margin-left="0.3"
     fit-margin-right="0.3"
     fit-margin-bottom="0.3"
     inkscape:zoom="7.375"
     inkscape:cx="18.661373"
     inkscape:cy="44.262469"
     inkscape:window-x="1912"
     inkscape:window-y="-8"
     inkscape:window-maximized="1"
     inkscape:current-layer="svg9639" />
  <title
     id="title9631">projects2</title>
  <path
     style="fill:#444655;fill-opacity:1;fill-rule:evenodd;stroke:none;stroke-width:0.37489319;stroke-linejoin:round;stroke-miterlimit:4;stroke-dasharray:none;stroke-opacity:1"
     d="M 1.0113708,58.562889 0.3,57.980394 0.3920102,29.954003 C 0.4656744,7.5110589 0.3686194,1.1696433 0.7147989,0.82320762 1.0398735,0.49790732 3.6054127,0.17996174 9.8282866,0.34505677 l 7.5391374,0.22318535 c 1.495264,0.070107 1.649056,0.43831988 1.549984,0.86272408 0.576193,0.8790957 0.211854,2.7648212 0.305826,28.7024958 l 0.0994,27.436704 -0.739915,0.787602 c -0.738587,0.786192 -0.754468,0.787613 -8.7999474,0.787613 -7.1833166,0 -8.1374043,-0.06335 -8.7713969,-0.582493 z M 14.893394,12.795466 14.796714,10.049422 9.7206906,9.9575421 4.6446697,9.8656621 v 2.8379269 2.837929 h 5.1726949 5.1726974 z"
     id="path10200"
     inkscape:connector-curvature="0"
     sodipodi:nodetypes="ccscsccsccsccccccccccc" />
  <path
     style="fill:#d1a46f;fill-opacity:0.99607843;fill-rule:evenodd;stroke:none;stroke-width:0.37489319;stroke-linejoin:round;stroke-miterlimit:4;stroke-dasharray:none;stroke-opacity:1"
     d="m 23.027489,58.276158 -0.89752,-0.705992 V 29.708651 c 0,-24.6781299 0.05921,-27.9460359 0.518154,-28.6012818 0.512301,-0.73141335 0.61288,-0.739712 8.903842,-0.73467282 4.612128,0.002807 8.550495,0.11513884 8.751927,0.24964294 1.098912,0.73376158 1.131605,1.57579708 1.131605,29.14408168 0,26.518914 -0.02144,27.471985 -0.635797,28.231254 -0.632422,0.781634 -0.678898,0.786322 -8.755245,0.885136 -7.847415,0.09604 -8.149517,0.07572 -9.016966,-0.606653 z M 36.775541,12.350343 V 9.6875101 h -4.992808 -4.992809 v 2.6628329 2.662831 h 4.992809 4.992808 z"
     id="path10202"
     inkscape:connector-curvature="0" />
  <path
     style="fill:#444655;fill-opacity:1;fill-rule:evenodd;stroke:none;stroke-width:0.36061001;stroke-linejoin:round;stroke-miterlimit:4;stroke-dasharray:none;stroke-opacity:1"
     d="M 61.374124,58.713378 C 60.979373,58.41458 56.398213,48.998549 50.175481,35.696044 41.011844,16.106666 39.680418,13.072116 39.918874,12.319455 40.141109,11.617997 41.415299,10.777359 46.660358,7.871802 50.21746,5.9013088 53.50097,4.1992331 53.95705,4.0894131 c 0.641308,-0.1544201 0.990289,-0.00605 1.539871,0.6544849 0.390847,0.4697895 5.343775,10.827044 11.006507,23.016124 9.154229,19.704558 10.264081,22.262202 10.00916,23.065899 -0.239438,0.754954 -1.403377,1.518488 -7.06215,4.63281 -3.726487,2.050892 -6.917825,3.735962 -7.091871,3.744608 -0.174036,0.0088 -0.61704,-0.211855 -0.984443,-0.489977 z"
     id="path9655"
     inkscape:connector-curvature="0" />
</svg>
