<?xml version="1.0" encoding="UTF-8" standalone="no"?>
<!-- Generated by IcoMoon.io -->

<svg
   xmlns:dc="http://purl.org/dc/elements/1.1/"
   xmlns:cc="http://creativecommons.org/ns#"
   xmlns:rdf="http://www.w3.org/1999/02/22-rdf-syntax-ns#"
   xmlns:svg="http://www.w3.org/2000/svg"
   xmlns="http://www.w3.org/2000/svg"
   xmlns:sodipodi="http://sodipodi.sourceforge.net/DTD/sodipodi-0.dtd"
   xmlns:inkscape="http://www.inkscape.org/namespaces/inkscape"
   version="1.1"
   width="56.510555"
   height="59.679317"
   viewBox="0 0 56.510556 59.679317"
   id="svg10262"
   sodipodi:docname="skills2IN.svg"
   inkscape:version="0.92.4 (5da689c313, 2019-01-14)">
  <metadata
     id="metadata10268">
    <rdf:RDF>
      <cc:Work
         rdf:about="">
        <dc:format>image/svg+xml</dc:format>
        <dc:type
           rdf:resource="http://purl.org/dc/dcmitype/StillImage" />
        <dc:title>skills2</dc:title>
      </cc:Work>
    </rdf:RDF>
  </metadata>
  <defs
     id="defs10266" />
  <sodipodi:namedview
     pagecolor="#ffffff"
     bordercolor="#666666"
     borderopacity="1"
     objecttolerance="10"
     gridtolerance="10"
     guidetolerance="10"
     inkscape:pageopacity="0"
     inkscape:pageshadow="2"
     inkscape:window-width="1920"
     inkscape:window-height="1017"
     id="namedview10264"
     showgrid="false"
     fit-margin-top="0.3"
     fit-margin-left="0.3"
     fit-margin-bottom="0.3"
     fit-margin-right="0.3"
     inkscape:showpageshadow="false"
     inkscape:zoom="7.375"
     inkscape:cx="19.907383"
     inkscape:cy="35.020239"
     inkscape:window-x="1912"
     inkscape:window-y="-8"
     inkscape:window-maximized="1"
     inkscape:current-layer="svg10262" />
  <title
     id="title10258">skills2</title>
  <path
     style="fill:#d1a46f;fill-opacity:0.99607843;fill-rule:evenodd;stroke:none;stroke-width:0.35772365;stroke-linejoin:round;stroke-miterlimit:4;stroke-dasharray:none;stroke-opacity:1"
     d="m 5.5190522,34.57498 v -5.716975 h 23.7653688 23.76537 l 0.690585,0.735091 c 0.639217,0.680416 0.69058,1.056677 0.69058,5.058705 0,4.29257 -0.0061,4.328336 -0.836858,4.981883 -0.829583,0.652552 -1.042069,0.658272 -24.455952,0.658272 H 5.5190522 Z"
     id="path10272"
     inkscape:connector-curvature="0" />
  <path
     style="fill:#444655;fill-opacity:0.99607843;fill-rule:evenodd;stroke:none;stroke-width:0.35772365;stroke-linejoin:round;stroke-miterlimit:4;stroke-dasharray:none;stroke-opacity:1"
     d="M 5.5825737,48.549809 V 42.832831 H 22.221901 c 15.909751,0 16.672202,0.02663 17.389137,0.60716 0.72419,0.586416 0.749807,0.760983 0.749807,5.109818 0,4.348836 -0.02562,4.523404 -0.749807,5.109818 -0.716935,0.580536 -1.479386,0.607157 -17.389137,0.607157 H 5.5825737 Z"
     id="path10831"
     inkscape:connector-curvature="0" />
  <path
     style="fill:#444655;fill-opacity:0.99607843;fill-rule:evenodd;stroke:none;stroke-width:0.35772365;stroke-linejoin:round;stroke-miterlimit:4;stroke-dasharray:none;stroke-opacity:1"
     d="m 5.4237685,20.61315 v -5.729978 h 9.8228525 9.822848 l 0.658273,0.836858 c 0.587806,0.747274 0.658272,1.270493 0.658272,4.887763 0,3.514302 -0.08039,4.150235 -0.606807,4.80072 l -0.606804,0.749806 -9.874314,0.0924 -9.8743205,0.09241 z"
     id="path10833"
     inkscape:connector-curvature="0" />
  <path
     style="fill:#444655;fill-opacity:0.99607843;fill-rule:evenodd;stroke:none;stroke-width:0.35772365;stroke-linejoin:round;stroke-miterlimit:4;stroke-dasharray:none;stroke-opacity:1"
     d="M 5.4237685,6.3077082 V 0.5907327 h 2.3671303 c 4.2856102,0 4.7273332,0.6084734 4.5681062,6.2925446 -0.140424,5.0128197 -0.243616,5.1414087 -4.1259742,5.1414087 H 5.4237685 Z"
     id="path10835"
     inkscape:connector-curvature="0" />
  <path
     style="fill:#444655;fill-opacity:0.99607843;fill-rule:evenodd;stroke:none;stroke-width:0.35772365;stroke-linejoin:round;stroke-miterlimit:4;stroke-dasharray:none;stroke-opacity:1"
     d="M 0.3112351,29.047587 0.3,0.3224701 1.3105172,0.311235 2.399682,0.3 2.5345031,27.93595 V 57.156053 H 29.372528 56.210555 v 1.111633 1.111633 H 28.260896 0.3112351 Z"
     id="path10837"
     inkscape:connector-curvature="0"
     sodipodi:nodetypes="ccccccccccccc" />
</svg>
