<!-- Generated by IcoMoon.io -->
<svg version="1.1" xmlns="http://www.w3.org/2000/svg" width="768" height="768" viewBox="0 0 768 768">
<title></title>
<g id="icomoon-ignore">
</g>
<path fill="#000" d="M265.376 374.624l96 96c12.512 12.512 32.768 12.512 45.248 0l320-320c12.512-12.512 12.512-32.768 0-45.248s-32.768-12.512-45.248 0l-297.376 297.376-73.376-73.376c-12.512-12.512-32.768-12.512-45.248 0s-12.512 32.768 0 45.248zM640 384v224c0 8.832-3.552 16.8-9.376 22.624s-13.792 9.376-22.624 9.376h-448c-8.832 0-16.8-3.552-22.624-9.376s-9.376-13.792-9.376-22.624v-448c0-8.832 3.552-16.8 9.376-22.624s13.792-9.376 22.624-9.376h352c17.664 0 32-14.336 32-32s-14.336-32-32-32h-352c-26.496 0-50.56 10.784-67.872 28.128s-28.128 41.376-28.128 67.872v448c0 26.496 10.784 50.56 28.128 67.872s41.376 28.128 67.872 28.128h448c26.496 0 50.56-10.784 67.872-28.128s28.128-41.376 28.128-67.872v-224c0-17.664-14.336-32-32-32s-32 14.336-32 32z"></path>
</svg>
