<?xml version="1.0" encoding="UTF-8" standalone="no"?>
<!-- Generated by IcoMoon.io -->

<svg
   xmlns:dc="http://purl.org/dc/elements/1.1/"
   xmlns:cc="http://creativecommons.org/ns#"
   xmlns:rdf="http://www.w3.org/1999/02/22-rdf-syntax-ns#"
   xmlns:svg="http://www.w3.org/2000/svg"
   xmlns="http://www.w3.org/2000/svg"
   xmlns:sodipodi="http://sodipodi.sourceforge.net/DTD/sodipodi-0.dtd"
   xmlns:inkscape="http://www.inkscape.org/namespaces/inkscape"
   version="1.1"
   width="698.73633"
   height="640.59998"
   viewBox="0 0 698.73633 640.59998"
   id="svg1384"
   sodipodi:docname="checkSVG.svg"
   inkscape:version="0.92.4 (5da689c313, 2019-01-14)">
  <metadata
     id="metadata1390">
    <rdf:RDF>
      <cc:Work
         rdf:about="">
        <dc:format>image/svg+xml</dc:format>
        <dc:type
           rdf:resource="http://purl.org/dc/dcmitype/StillImage" />
        <dc:title></dc:title>
      </cc:Work>
    </rdf:RDF>
  </metadata>
  <defs
     id="defs1388" />
  <sodipodi:namedview
     pagecolor="#ffffff"
     bordercolor="#666666"
     borderopacity="1"
     objecttolerance="10"
     gridtolerance="10"
     guidetolerance="10"
     inkscape:pageopacity="0"
     inkscape:pageshadow="2"
     inkscape:window-width="1920"
     inkscape:window-height="1001"
     id="namedview1386"
     showgrid="false"
     inkscape:zoom="1.0520833"
     inkscape:cx="320.3"
     inkscape:cy="310.26871"
     inkscape:window-x="-9"
     inkscape:window-y="-9"
     inkscape:window-maximized="1"
     inkscape:current-layer="svg1384"
     fit-margin-top="0.3"
     fit-margin-bottom="0.3"
     fit-margin-right="0.3"
     fit-margin-left="0.3"
     showborder="false"
     inkscape:pagecheckerboard="true" />
  <g
     id="icomoon-ignore"
     transform="translate(-63.7,-51.343564)" />
  <path
     d="m 201.676,310.924 96,96 c 12.512,12.512 32.768,12.512 45.248,0 l 320,-320.000004 c 12.512,-12.512 12.512,-32.768 0,-45.247996 -12.512,-12.48 -32.768,-12.512 -45.248,0 L 320.3,339.052 246.924,265.676 c -12.512,-12.512 -32.768,-12.512 -45.248,0 -12.48,12.512 -12.512,32.768 0,45.248 z M 576.3,320.3 v 224 c 0,8.832 -3.552,16.8 -9.376,22.624 -5.824,5.824 -13.792,9.376 -22.624,9.376 h -448 c -8.832,0 -16.8,-3.552 -22.624,-9.376 C 67.852,561.1 64.3,553.132 64.3,544.3 V 96.299996 c 0,-8.832 3.552,-16.8 9.376,-22.624 5.824,-5.824 13.792,-9.376 22.624,-9.376 h 352 c 17.664,0 32,-14.336 32,-31.999996 0,-17.664 -14.336,-32 -32,-32 H 96.3 C 69.804,0.3 45.74,11.084 28.428,28.428 11.116,45.772 0.3,69.803996 0.3,96.299996 V 544.3 c 0,26.496 10.784,50.56 28.128,67.872 C 45.772,629.484 69.804,640.3 96.3,640.3 h 448 c 26.496,0 50.56,-10.784 67.872,-28.128 C 629.484,594.828 640.3,570.796 640.3,544.3 v -224 c 0,-17.664 -14.336,-32 -32,-32 -17.664,0 -32,14.336 -32,32 z"
     id="path1382"
     inkscape:connector-curvature="0"
     style="fill:#444655;fill-opacity:1" />
  <path
     style="fill:#d1a46f;fill-opacity:1;fill-rule:evenodd;stroke:none;stroke-width:1.07054186;stroke-linejoin:round;stroke-miterlimit:4;stroke-dasharray:none;stroke-opacity:1"
     d="m 339.02476,415.60427 c -2.09109,-0.68947 -4.87129,-1.80351 -6.17822,-2.47564 -1.30693,-0.67214 -25.82495,-24.59235 -54.48449,-53.15604 -38.70172,-38.57228 -52.7437,-53.1567 -54.57809,-56.68645 -1.87886,-3.61529 -2.56679,-6.57198 -2.87499,-12.35644 -0.5415,-10.16354 1.83885,-16.66508 8.65903,-23.65074 6.76524,-6.92938 13.4862,-9.44168 23.9122,-8.93843 12.92024,0.62365 12.46399,0.26898 55.86152,43.4245 l 38.75261,38.53649 150.87115,-150.73561 C 621.30453,67.336756 650.73541,38.40153 654.58911,36.56316 c 6.72625,-3.20869 19.81948,-3.23652 26.268,-0.0558 7.04738,3.47607 11.87161,8.23937 15.2074,15.015306 2.63291,5.34821 3.06222,7.23375 3.07484,13.50466 0.0291,14.4418 14.81194,-1.52761 -168.01911,181.504664 -181.47319,181.67293 -168.18496,169.25316 -181.86917,169.98316 -3.72013,0.19847 -8.02471,-0.18494 -10.22631,-0.91085 z"
     id="path1392"
     inkscape:connector-curvature="0" />
</svg>
