<!-- Generated by IcoMoon.io -->
<svg version="1.1" xmlns="http://www.w3.org/2000/svg" width="640" height="640" viewBox="0 0 640 640">
<title></title>
<g id="icomoon-ignore">
</g>
<path d="M596.48 84.288c-11.008 3.872-554.272 195.328-564.992 199.104-9.088 3.2-11.104 11.040-0.32 15.328 12.832 5.152 121.472 48.672 121.472 48.672v0l72 28.832c0 0 346.816-254.656 351.488-258.112 4.736-3.456 10.176 3.040 6.752 6.752-3.424 3.744-251.872 272.416-251.872 272.416v0.064l-14.464 16.096 19.168 10.304c0 0 148.8 80.128 159.424 85.824 9.312 4.992 21.376 0.864 24.064-10.688 3.168-13.632 91.040-392.352 92.992-400.8 2.528-10.976-4.736-17.664-15.712-13.792zM224 549.184c0 7.872 4.448 10.080 10.592 4.512 8.032-7.328 91.2-81.952 91.2-81.952l-101.792-52.608v130.048z"></path>
</svg>
