<!-- Generated by IcoMoon.io -->
<svg version="1.1" xmlns="http://www.w3.org/2000/svg" width="1024" height="1024" viewBox="0 0 1024 1024">
<title></title>
<g id="icomoon-ignore">
</g>
<path fill="#5c2d91" d="M750.080 2.987c-0.263-0.004-0.574-0.006-0.885-0.006-16.648 0-31.812 6.357-43.196 16.775l0.048-0.044c-0.006 0-0.014 0-0.021 0s-0.015 0-0.023 0h0.001c-0.776 0.649-1.471 1.276-2.142 1.928l0.009-0.008-339.925 375.893-198.4-162.688-17.365-14.933c-7.334-6.125-16.863-9.844-27.26-9.844-5.914 0-11.547 1.203-16.668 3.378l0.279-0.105c-0.451 0.175-0.62 0.247-0.788 0.32l0.276-0.107-77.483 32c-1.388 0.56-2.469 1.061-3.524 1.605l0.239-0.112c-0.877 0.489-1.532 0.884-2.176 1.297l0.17-0.102c-0.753 0.411-1.283 0.722-1.805 1.044l0.184-0.106c-0.834 0.555-1.501 1.032-2.154 1.528l0.106-0.077c-0.548 0.407-0.978 0.743-1.402 1.086l0.079-0.062c-0.698 0.553-1.295 1.056-1.878 1.574l0.043-0.038c-0.56 0.49-1.060 0.949-1.549 1.421l0.013-0.013c-0.443 0.461-0.889 0.947-1.323 1.444l-0.042 0.049c-0.444 0.484-0.904 1.012-1.351 1.551l-0.057 0.070c-0.454 0.535-0.943 1.146-1.416 1.77l-0.078 0.107c-0.265 0.351-0.602 0.824-0.929 1.304l-0.095 0.147c-0.375 0.546-0.827 1.256-1.257 1.98l-0.108 0.196c-0.187 0.287-0.469 0.761-0.743 1.241l-0.11 0.21c-0.249 0.454-0.591 1.155-0.915 1.866l-0.109 0.267c-0.19 0.369-0.477 1.001-0.748 1.64l-0.105 0.28c-0.144 0.327-0.375 0.949-0.593 1.578l-0.090 0.3c-0.151 0.364-0.383 1.030-0.599 1.703l-0.084 0.302c-0.16 0.474-0.38 1.259-0.578 2.053l-0.062 0.294c-0.087 0.268-0.234 0.841-0.37 1.418l-0.057 0.289c-0.102 0.518-0.222 1.304-0.32 2.096l-0.021 0.208c-0.080 0.491-0.17 1.222-0.242 1.958l-0.014 0.175c-0.1 1.049-0.162 2.281-0.171 3.526v454.799c0.107 17.535 10.776 32.552 25.961 39.020l0.279 0.106 77.483 32.555c4.844 2.072 10.48 3.277 16.397 3.277 10.609 0 20.313-3.872 27.777-10.279l-0.057 0.048 17.408-14.933 198.4-162.688 339.968 375.893c0.952 0.918 1.952 1.824 2.981 2.698l0.091 0.076c0.732 0.677 1.523 1.374 2.332 2.052l0.1 0.081c0.639 0.495 1.445 1.084 2.265 1.654l0.21 0.138c0.688 0.517 1.564 1.135 2.455 1.731l0.233 0.146c0.624 0.402 1.53 0.94 2.45 1.455l0.323 0.166c0.599 0.369 1.506 0.88 2.427 1.368l0.347 0.168c0.567 0.299 1.522 0.742 2.488 1.163l0.413 0.16c0.578 0.289 1.562 0.72 2.559 1.126l0.428 0.154c0.582 0.241 1.616 0.604 2.662 0.941l0.453 0.126c0.478 0.181 1.417 0.473 2.365 0.743l0.451 0.11c0.681 0.214 1.827 0.508 2.984 0.771l0.429 0.082c0.537 0.143 1.517 0.351 2.505 0.536l0.396 0.062c0.715 0.128 1.809 0.278 2.911 0.401l0.289 0.026c0.785 0.103 1.887 0.209 2.998 0.287l0.202 0.011c0.882 0.062 1.967 0.108 3.058 0.127l0.056 0.001c0.489 0.013 1.065 0.021 1.643 0.021s1.153-0.008 1.727-0.023l-0.085 0.002c1.283-0.049 2.437-0.126 3.581-0.232l-0.253 0.019c1.224-0.099 2.206-0.205 3.182-0.333l-0.324 0.035c1.604-0.208 2.868-0.418 4.118-0.664l-0.406 0.067c1.265-0.221 2.13-0.399 2.989-0.594l-0.429 0.082c1.596-0.385 2.738-0.708 3.867-1.061l-0.453 0.122c1.427-0.375 2.395-0.668 3.354-0.982l-0.452 0.128c1.438-0.526 2.424-0.929 3.398-1.355l-0.411 0.161c1.709-0.641 2.962-1.173 4.193-1.743l-0.396 0.164 210.859-101.376c7.953-3.902 14.684-9.093 20.205-15.374l0.062-0.072c1.271-1.429 2.53-2.986 3.715-4.6l0.125-0.178c-0.107 0.207-0.050 0.109 0.006 0.011l0.165-0.31c1.077-1.489 2.206-3.231 3.249-5.027l0.164-0.306c0.789-1.329 1.672-3.008 2.48-4.729l0.165-0.391c-0.038 0.098 0.090-0.14 0.216-0.378l0.168-0.347c0.486-1.069 1.078-2.579 1.613-4.116l0.136-0.449c0.056-0.088 0.258-0.611 0.453-1.136l0.144-0.443c0.365-1.050 0.805-2.577 1.188-4.126l0.092-0.44c0.039-0.081 0.172-0.612 0.297-1.144l0.087-0.434c0.228-1.015 0.482-2.464 0.687-3.93l0.038-0.337c0.072-0.33 0.192-1.056 0.299-1.786l0.042-0.348c0.111-1.067 0.203-2.412 0.253-3.768l0.003-0.114c0.078-0.939 0.14-2.111 0.169-3.29l0.002-0.080v-687.403c0-0.013 0-0.028 0-0.043s0-0.030 0-0.045v0.002c0.002-0.203 0.004-0.443 0.004-0.683s-0.001-0.48-0.004-0.719v0.036c-0.039-2.302-0.193-4.521-0.457-6.706l0.030 0.306c-2.784-22.106-16.491-40.483-35.462-49.753l-0.378-0.167-210.773-101.333c-7.77-3.809-16.888-6.105-26.525-6.271l-0.056-0.001zM767.872 295.339v433.365l-264.32-216.661zM128.213 365.909l132.139 146.133-132.139 146.091z"></path>
</svg>
