<svg xmlns="http://www.w3.org/2000/svg" id="Layer_1" viewBox="0 0 48 48"><path fill="#1d67b1" d="M48 23.977C48 37.248 37.248 48 23.978 48 10.752 48 0 37.248 0 23.977 0 10.752 10.752 0 23.978 0 37.248 0 48 10.752 48 23.977z"/><path fill="#fff" d="M35.026 40.001a.5.5 0 0 1-.5-.5v-4.279a3.48 3.48 0 0 0-1.65-2.971l-6.144-3.826a.5.5 0 1 1 .529-.848l6.144 3.826a4.473 4.473 0 0 1 2.121 3.82v4.279a.5.5 0 0 1-.5.499zM12.974 40.001a.5.5 0 0 1-.5-.5v-4.28c0-1.563.793-2.991 2.12-3.819l6.139-3.826a.5.5 0 0 1 .529.849l-6.139 3.826a3.48 3.48 0 0 0-1.649 2.97v4.28a.5.5 0 0 1-.5.5z"/><path fill="#fff" d="M20.497 24.992h1v3.009h-1zM26.497 24.992h1v3.009h-1zM17.5 40.001a.5.5 0 0 1-.5-.5v-2.393c0-.684-.254-1.337-.715-1.842a.5.5 0 1 1 .738-.675c.63.69.977 1.583.977 2.517v2.393a.5.5 0 0 1-.5.5zM30.5 40.001a.5.5 0 0 1-.5-.5v-2.393c0-.933.347-1.827.976-2.516a.5.5 0 1 1 .738.674A2.73 2.73 0 0 0 31 37.108v2.393a.5.5 0 0 1-.5.5z"/><path fill="#fff" d="M23.987 26.227a6.042 6.042 0 0 1-6.035-6.036V19.12a4.876 4.876 0 0 1 3.153-4.548.5.5 0 0 1 .35.937 3.873 3.873 0 0 0-2.503 3.612v1.071a5.041 5.041 0 0 0 5.035 5.036 5.042 5.042 0 0 0 5.036-5.036v-2.508a.5.5 0 0 1 1 0v2.508a6.043 6.043 0 0 1-6.036 6.035zM24 32.001a6.536 6.536 0 0 1-5.183-2.577.5.5 0 1 1 .797-.603c1.034 1.365 2.674 2.181 4.386 2.181s3.352-.815 4.386-2.181a.5.5 0 0 1 .797.603A6.536 6.536 0 0 1 24 32.001z"/><path fill="#fff" d="M18.5 30.001h-1.092a2.498 2.498 0 0 1-2.468-2.896c.413-2.57.622-5.192.622-7.795v-2.811c0-4.687 3.813-8.5 8.5-8.5s8.5 3.813 8.5 8.5c0 1.237-.26 2.429-.772 3.544l-.282.461a.501.501 0 0 1-.925-.264 2.958 2.958 0 0 0-2.954-2.954l-.358-.01h-.001c-2.479 0-4.859-.771-6.871-2.23a.5.5 0 1 1 .588-.809 10.662 10.662 0 0 0 6.299 2.04l.358.01a3.95 3.95 0 0 1 3.608 2.371 7.582 7.582 0 0 0 .311-2.158c0-4.136-3.364-7.5-7.5-7.5s-7.5 3.364-7.5 7.5v2.811c0 2.656-.214 5.332-.634 7.954a1.498 1.498 0 0 0 1.481 1.738h1.09a.5.5 0 0 1 0 .998z"/><path fill="#fff" d="M30.715 30.001H29.5a.5.5 0 0 1 0-1h1.215a1.5 1.5 0 0 0 1.481-1.738 50.445 50.445 0 0 1-.634-7.954V16.5a.5.5 0 0 1 1 0v2.809c0 2.603.209 5.226.622 7.795a2.5 2.5 0 0 1-2.469 2.897z"/></svg>