<svg width="127" height="121" viewBox="0 0 127 121" fill="none" xmlns="http://www.w3.org/2000/svg">
<g filter="url(#filter0_d)">
<path d="M90.7184 0.000654221C90.6883 0.000218077 90.6528 0 90.6172 0C88.714 0 86.9803 0.693143 85.6789 1.82908L85.6844 1.82428C85.6837 1.82428 85.6828 1.82428 85.682 1.82428C85.6812 1.82428 85.6802 1.82428 85.6793 1.82428C85.5906 1.89505 85.5113 1.96341 85.4346 2.03451L85.4356 2.03363L46.574 43.0196L23.8921 25.2807L21.9068 23.6524C21.0684 22.9846 19.979 22.5791 18.7903 22.5791C18.1142 22.5791 17.4702 22.7103 16.8848 22.9474L16.9167 22.936C16.8651 22.9551 16.8458 22.9629 16.8266 22.9709L16.8582 22.9592L7.99998 26.4484C7.8413 26.5094 7.71771 26.564 7.5971 26.6234L7.62442 26.6111C7.52416 26.6645 7.44928 26.7075 7.37566 26.7526L7.39509 26.7414C7.309 26.7863 7.24841 26.8202 7.18874 26.8553L7.20977 26.8437C7.11442 26.9042 7.03817 26.9562 6.96352 27.0103L6.97564 27.0019C6.91299 27.0463 6.86383 27.0829 6.81535 27.1203L6.82438 27.1136C6.74459 27.1739 6.67633 27.2287 6.60968 27.2852L6.6146 27.2811C6.55058 27.3345 6.49342 27.3845 6.43751 27.436L6.439 27.4346C6.38835 27.4849 6.33736 27.5378 6.28775 27.592L6.28295 27.5974C6.23219 27.6502 6.1796 27.7077 6.12849 27.7665L6.12198 27.7741C6.07007 27.8325 6.01417 27.8991 5.96009 27.9671L5.95118 27.9788C5.92088 28.0171 5.88235 28.0686 5.84497 28.121L5.83411 28.137C5.79124 28.1965 5.73956 28.2739 5.6904 28.3529L5.67806 28.3743C5.65668 28.4056 5.62444 28.4572 5.59311 28.5096L5.58054 28.5325C5.55207 28.582 5.51297 28.6584 5.47593 28.7359L5.46347 28.765C5.44175 28.8053 5.40894 28.8742 5.37796 28.9439L5.36595 28.9744C5.34949 29.0101 5.32308 29.0779 5.29816 29.1465L5.28787 29.1792C5.27061 29.2189 5.24408 29.2915 5.21939 29.3649L5.20978 29.3978C5.19149 29.4495 5.16634 29.5351 5.14371 29.6216L5.13662 29.6537C5.12667 29.6829 5.10987 29.7454 5.09432 29.8083L5.0878 29.8398C5.07614 29.8963 5.06242 29.982 5.05122 30.0684L5.04882 30.091C5.03967 30.1446 5.02938 30.2243 5.02115 30.3045L5.01955 30.3236C5.00812 30.438 5.00103 30.5723 5 30.7081V80.2976C5.01223 82.2095 6.23196 83.8469 7.96797 84.5522L7.99987 84.5638L16.858 88.1134C17.4118 88.3393 18.0562 88.4707 18.7326 88.4707C19.9455 88.4707 21.0549 88.0485 21.9082 87.3499L21.9017 87.3552L23.8918 85.7269L46.5737 67.9881L85.4403 108.974C85.5491 109.074 85.6634 109.173 85.7811 109.268L85.7915 109.276C85.8752 109.35 85.9656 109.426 86.0581 109.5L86.0695 109.509C86.1426 109.563 86.2347 109.627 86.3285 109.689L86.3525 109.704C86.4311 109.761 86.5313 109.828 86.6331 109.893L86.6598 109.909C86.7311 109.953 86.8347 110.012 86.9399 110.068L86.9768 110.086C87.0453 110.126 87.149 110.182 87.2543 110.235L87.2939 110.253C87.3587 110.286 87.4679 110.334 87.5784 110.38L87.6256 110.398C87.6917 110.429 87.8042 110.476 87.9181 110.52L87.9671 110.537C88.0336 110.563 88.1518 110.603 88.2714 110.64L88.3232 110.653C88.3779 110.673 88.4852 110.705 88.5936 110.734L88.6451 110.746C88.723 110.77 88.854 110.802 88.9863 110.831L89.0353 110.839C89.0967 110.855 89.2087 110.878 89.3217 110.898L89.367 110.905C89.4487 110.919 89.5738 110.935 89.6998 110.948L89.7328 110.951C89.8226 110.962 89.9485 110.974 90.0756 110.983L90.0986 110.984C90.1995 110.991 90.3235 110.996 90.4482 110.998L90.4547 110.998C90.5106 110.999 90.5764 111 90.6425 111C90.7086 111 90.7743 110.999 90.8399 110.997L90.8302 110.998C90.9769 110.992 91.1088 110.984 91.2396 110.972L91.2107 110.974C91.3506 110.964 91.4629 110.952 91.5745 110.938L91.5374 110.942C91.7208 110.919 91.8653 110.896 92.0082 110.87L91.9618 110.877C92.1064 110.853 92.2053 110.833 92.3035 110.812L92.2545 110.821C92.4369 110.779 92.5675 110.744 92.6966 110.705L92.6448 110.719C92.8079 110.678 92.9186 110.646 93.0282 110.612L92.9765 110.626C93.1409 110.568 93.2536 110.524 93.365 110.478L93.318 110.495C93.5134 110.425 93.6566 110.367 93.7974 110.305L93.7521 110.323L117.858 99.2696C118.768 98.8441 119.537 98.2781 120.168 97.5932L120.175 97.5854C120.321 97.4296 120.465 97.2598 120.6 97.0838L120.614 97.0644C120.602 97.087 120.609 97.0763 120.615 97.0656L120.634 97.0318C120.757 96.8695 120.886 96.6795 121.005 96.4837L121.024 96.4503C121.114 96.3054 121.215 96.1223 121.308 95.9347L121.327 95.8921C121.322 95.9027 121.337 95.8768 121.351 95.8508L121.37 95.813C121.426 95.6964 121.494 95.5318 121.555 95.3642L121.57 95.3153C121.577 95.3057 121.6 95.2486 121.622 95.1914L121.639 95.1431C121.68 95.0286 121.731 94.8621 121.774 94.6932L121.785 94.6452C121.789 94.6364 121.805 94.5785 121.819 94.5205L121.829 94.4732C121.855 94.3625 121.884 94.2045 121.907 94.0447L121.912 94.0079C121.92 93.9719 121.934 93.8928 121.946 93.8132L121.951 93.7752C121.963 93.6589 121.974 93.5122 121.98 93.3644L121.98 93.352C121.989 93.2496 121.996 93.1218 121.999 92.9932L122 92.9845V18.0327C122 18.0313 122 18.0297 122 18.028C122 18.0264 122 18.0248 122 18.0231C122 18.001 122 17.975 122 17.9489C122 17.9227 122 17.8965 122 17.8705V17.8744C121.995 17.6234 121.977 17.3815 121.947 17.1432L121.951 17.1766C121.632 14.7662 120.065 12.7625 117.897 11.7517L117.853 11.7335L93.7569 0.684529C92.8686 0.26921 91.8262 0.0188632 90.7245 0.00076325L90.7184 0.000654221ZM92.7525 31.8776V79.13L62.5343 55.5062L92.7525 31.8776ZM19.624 39.5723L34.7307 55.5061L19.624 71.4352V39.5723Z" fill="#F4F4F4"/>
</g>
<defs>
<filter id="filter0_d" x="0" y="0" width="127" height="121" filterUnits="userSpaceOnUse" color-interpolation-filters="sRGB">
<feFlood flood-opacity="0" result="BackgroundImageFix"/>
<feColorMatrix in="SourceAlpha" type="matrix" values="0 0 0 0 0 0 0 0 0 0 0 0 0 0 0 0 0 0 127 0"/>
<feOffset dy="5"/>
<feGaussianBlur stdDeviation="2.5"/>
<feColorMatrix type="matrix" values="0 0 0 0 0.266667 0 0 0 0 0.27451 0 0 0 0 0.333333 0 0 0 0.6 0"/>
<feBlend mode="normal" in2="BackgroundImageFix" result="effect1_dropShadow"/>
<feBlend mode="normal" in="SourceGraphic" in2="effect1_dropShadow" result="shape"/>
</filter>
</defs>
</svg>
